<?xml version="1.0" encoding="UTF-8"?>
<!DOCTYPE svg PUBLIC "-//W3C//DTD SVG 1.1//EN" "http://www.w3.org/Graphics/SVG/1.1/DTD/svg11.dtd">
<!-- Creator: CorelDRAW 2019 (64-Bit) -->
<svg xmlns="http://www.w3.org/2000/svg" xml:space="preserve" width="285px" height="285px" version="1.1" shape-rendering="geometricPrecision" text-rendering="geometricPrecision" image-rendering="optimizeQuality" fill-rule="evenodd" clip-rule="evenodd"
viewBox="0 0 39037 39037"
 xmlns:xlink="http://www.w3.org/1999/xlink">
 <g id="Warstwa_x0020_1">
  <metadata id="CorelCorpID_0Corel-Layer"/>
  <path fill="#FF6251" d="M19518 0c5390,0 10270,2185 13802,5717 3532,3532 5717,8412 5717,13801 0,5390 -2185,10270 -5717,13802 -3532,3532 -8412,5717 -13802,5717 -5389,0 -10269,-2185 -13801,-5717 -3532,-3532 -5717,-8412 -5717,-13802 0,-5389 2185,-10269 5717,-13801 3532,-3532 8412,-5717 13801,-5717zm8439 21342l0 6241 -3618 0 0 -5823c0,-1462 -522,-2461 -1832,-2461 -1000,0 -1594,673 -1856,1324 -96,232 -120,555 -120,881l0 6078 -3619 0c0,0 49,-9861 0,-10882l3619 0 0 1542c-7,12 -17,24 -24,36l24 0 0 -36c481,-740 1338,-1798 3261,-1798 2381,0 4165,1556 4165,4898zm-14830 -9888l0 0c-1238,0 -2047,813 -2047,1880 0,1045 786,1881 2000,1881l23 0c1262,0 2047,-836 2047,-1881 -24,-1067 -785,-1880 -2023,-1880zm-1832 16129l0 0 3617 0 0 -10883 -3617 0 0 10883zm20768 -20609c-3211,-3210 -7646,-5196 -12545,-5196 -4899,0 -9334,1986 -12544,5196 -3210,3210 -5196,7645 -5196,12544 0,4899 1986,9335 5196,12545 3210,3210 7645,5195 12544,5195 4899,0 9334,-1985 12545,-5195 3210,-3210 5195,-7646 5195,-12545 0,-4899 -1985,-9334 -5195,-12544z"/>
 </g>
</svg>
