<?xml version="1.0" encoding="UTF-8"?>
<!DOCTYPE svg PUBLIC "-//W3C//DTD SVG 1.1//EN" "http://www.w3.org/Graphics/SVG/1.1/DTD/svg11.dtd">
<!-- Creator: CorelDRAW 2019 (64-Bit) -->
<svg xmlns="http://www.w3.org/2000/svg" xml:space="preserve" width="285px" height="285px" version="1.1" shape-rendering="geometricPrecision" text-rendering="geometricPrecision" image-rendering="optimizeQuality" fill-rule="evenodd" clip-rule="evenodd"
viewBox="0 0 8757 8757"
 xmlns:xlink="http://www.w3.org/1999/xlink">
 <g id="Warstwa_x0020_1">
  <metadata id="CorelCorpID_0Corel-Layer"/>
  <path fill="#FF6251" d="M2530 2634l3697 0c119,0 226,48 304,126 78,78 126,186 126,304l0 2629c0,118 -48,226 -126,304 -78,78 -186,126 -304,126l-3697 0c-119,0 -226,-48 -304,-126 -78,-78 -126,-186 -126,-304l0 -2629c0,-118 48,-226 126,-304 78,-78 185,-126 304,-126zm1849 -2634c1209,0 2303,490 3096,1282 792,793 1282,1888 1282,3097 0,1209 -490,2303 -1282,3096 -793,792 -1887,1282 -3096,1282 -1209,0 -2304,-490 -3097,-1282 -792,-793 -1282,-1887 -1282,-3096 0,-1209 490,-2304 1282,-3097 793,-792 1888,-1282 3097,-1282zm2814 1565c-721,-721 -1715,-1166 -2814,-1166 -1099,0 -2094,445 -2814,1166 -721,720 -1166,1715 -1166,2814 0,1099 445,2094 1166,2814 720,720 1715,1165 2814,1165 1099,0 2093,-445 2814,-1165 720,-720 1165,-1715 1165,-2814 0,-1099 -445,-2094 -1165,-2814zm-2806 3103l1698 -1699 -3411 0 1713 1699zm-1952 -1464l0 2347 1178 -1178 -1178 -1169zm1416 1405l-1179 1179 3413 0 -1172 -1172 -407 407c-33,32 -76,49 -118,49 -43,0 -86,-16 -119,-49l-418 -414zm1299 -230l1172 1172 0 -2345 -1172 1173z"/>
 </g>
</svg>
