<?xml version="1.0" encoding="iso-8859-1"?>
<!-- Generator: Adobe Illustrator 16.0.0, SVG Export Plug-In . SVG Version: 6.00 Build 0)  -->
<!DOCTYPE svg PUBLIC "-//W3C//DTD SVG 1.1//EN" "http://www.w3.org/Graphics/SVG/1.1/DTD/svg11.dtd">
<svg version="1.1" id="Capa_1" xmlns="http://www.w3.org/2000/svg" xmlns:xlink="http://www.w3.org/1999/xlink" x="0px" y="0px"
	 width="41.333px" height="41.333px" viewBox="0 0 41.333 41.333" style="enable-background:new 0 0 41.333 41.333;"
	 xml:space="preserve">
<g>
	<path d="M33.764,10.198c-0.07-0.027-0.146-0.042-0.225-0.042H33.32c-0.028-0.001-0.057-0.006-0.084-0.01l-0.034-0.005
		c-0.201-0.026-0.414-0.028-0.61,0L9.219,10.156c-0.049,0-0.095,0.006-0.138,0.017l-0.026-0.004
		c-0.205-0.028-0.407-0.054-0.619-0.054C3.785,10.115,0,13.9,0,18.553c0,2.033,0.753,4.005,2.12,5.557l1.22,6.595
		c0.054,0.297,0.312,0.514,0.615,0.514h6.658c0.252,0,0.479-0.15,0.576-0.383l2.276-5.382h14.283l2.275,5.382
		c0.1,0.231,0.326,0.383,0.576,0.383h6.66c0.301,0,0.559-0.215,0.612-0.511l1.214-6.438c1.449-1.568,2.247-3.597,2.247-5.717
		C41.334,14.229,38.08,10.64,33.764,10.198z M38.057,23.538c-0.084,0.087-0.142,0.198-0.164,0.319l-1.151,6.109h-5.726l-2.276-5.384
		c-0.099-0.231-0.323-0.381-0.576-0.381h-15.11c-0.253,0-0.479,0.149-0.576,0.381l-2.276,5.384H4.475l-1.158-6.259
		c-0.021-0.112-0.074-0.22-0.154-0.31c-1.233-1.344-1.912-3.063-1.912-4.847c0-3.963,3.224-7.188,7.186-7.188
		c0.13,0,0.254,0.017,0.386,0.033l0.323,0.041c0.093,0.018,0.197-0.008,0.264-0.033l23.138-0.002
		c0.074-0.004,0.148-0.015,0.22-0.024c0.09-0.012,0.176-0.012,0.263,0c0.071,0.01,0.146,0.021,0.258,0.026h0.085
		c0.037,0.01,0.075,0.017,0.117,0.021c3.761,0.311,6.597,3.374,6.597,7.125C40.084,20.414,39.364,22.183,38.057,23.538z"/>
	<path d="M13.238,16.711h-1.807v-1.809c0-0.345-0.28-0.625-0.625-0.625H8.05c-0.345,0-0.625,0.28-0.625,0.625v1.809H5.618
		c-0.345,0-0.625,0.28-0.625,0.625v2.752c0,0.345,0.28,0.625,0.625,0.625h1.807v1.811c0,0.345,0.28,0.625,0.625,0.625h2.756
		c0.345,0,0.625-0.28,0.625-0.625v-1.811h1.807c0.345,0,0.625-0.28,0.625-0.625v-2.752C13.863,16.991,13.583,16.711,13.238,16.711z
		 M12.613,19.463h-1.807c-0.345,0-0.625,0.28-0.625,0.625v1.811H8.675v-1.811c0-0.345-0.28-0.625-0.625-0.625H6.243v-1.502H8.05
		c0.345,0,0.625-0.28,0.625-0.625v-1.809h1.506v1.809c0,0.345,0.28,0.625,0.625,0.625h1.807V19.463z"/>
	<path d="M31.473,17.338c1.121,0,2.033-0.913,2.033-2.035c0-1.121-0.912-2.033-2.033-2.033s-2.033,0.912-2.033,2.033
		C29.439,16.425,30.352,17.338,31.473,17.338z M31.473,14.519c0.433,0,0.783,0.351,0.783,0.783c0,0.433-0.352,0.785-0.783,0.785
		s-0.783-0.353-0.783-0.785C30.689,14.871,31.041,14.519,31.473,14.519z"/>
	<path d="M31.473,19.498c-1.121,0-2.033,0.912-2.033,2.033s0.912,2.033,2.033,2.033s2.033-0.912,2.033-2.033
		S32.594,19.498,31.473,19.498z M31.473,22.314c-0.432,0-0.783-0.352-0.783-0.783c0-0.431,0.352-0.783,0.783-0.783
		c0.433,0,0.783,0.352,0.783,0.783C32.256,21.962,31.904,22.314,31.473,22.314z"/>
	<path d="M27.289,16.398c-1.122,0-2.035,0.912-2.035,2.033c0,1.122,0.913,2.035,2.035,2.035c1.12,0,2.031-0.913,2.031-2.035
		C29.32,17.31,28.409,16.398,27.289,16.398z M27.289,19.216c-0.434,0-0.785-0.352-0.785-0.785c0-0.432,0.354-0.783,0.785-0.783
		S28.07,18,28.07,18.431C28.07,18.864,27.721,19.216,27.289,19.216z"/>
	<path d="M35.533,16.398c-1.122,0-2.035,0.912-2.035,2.033c0,1.122,0.913,2.035,2.035,2.035c1.121,0,2.033-0.913,2.033-2.035
		C37.566,17.31,36.654,16.398,35.533,16.398z M35.533,19.216c-0.434,0-0.785-0.352-0.785-0.785c0-0.432,0.352-0.783,0.785-0.783
		c0.432,0,0.783,0.352,0.783,0.783C36.316,18.864,35.965,19.216,35.533,19.216z"/>
</g>
<g>
</g>
<g>
</g>
<g>
</g>
<g>
</g>
<g>
</g>
<g>
</g>
<g>
</g>
<g>
</g>
<g>
</g>
<g>
</g>
<g>
</g>
<g>
</g>
<g>
</g>
<g>
</g>
<g>
</g>
</svg>
