<svg height="512pt" viewBox="-83 0 512 512" width="512pt" xmlns="http://www.w3.org/2000/svg"><path d="m302.015625 164.101562c24.4375 0 44.316406-19.878906 44.316406-44.316406 0-29.507812-24.007812-53.519531-53.519531-53.519531h-2.359375l4.535156-18.132813h10.710938c4.140625 0 7.5-3.355468 7.5-7.5v-33.132812c0-4.144531-3.359375-7.5-7.5-7.5h-265.0625c-4.144531 0-7.5 3.355469-7.5 7.5v33.132812c0 4.144532 3.355469 7.5 7.5 7.5h10.707031l4.535156 18.132813h-2.359375c-29.511719 0-53.519531 24.011719-53.519531 53.519531 0 24.4375 19.878906 44.316406 44.316406 44.316406 4.828125 0 9.4375-.941406 13.667969-2.628906v38.53125c-9.609375 3.160156-16.570313 12.210938-16.570313 22.863282 0 13.269531 10.796876 24.066406 24.066407 24.066406h.785156v183.800781h-9.066406c-4.140625 0-7.5 3.355469-7.5 7.5v25.632813h-9.0625c-4.144531 0-7.5 3.355468-7.5 7.5v33.132812c0 4.144531 3.355469 7.5 7.5 7.5h265.0625c4.140625 0 7.5-3.355469 7.5-7.5v-33.136719c0-4.140625-3.359375-7.5-7.5-7.5h-9.066407v-25.628906c0-4.144531-3.359374-7.5-7.5-7.5h-9.066406v-183.800781h.78125c13.269532 0 24.066406-10.796875 24.066406-24.066406 0-10.648438-6.957031-19.703126-16.5625-22.863282v-38.53125c4.230469 1.6875 8.839844 2.628906 13.664063 2.628906zm-253.878906-149.101562h250.0625v18.132812h-250.0625zm18.667969 33.132812h32.59375v4.234376c0 4.144531 3.359374 7.5 7.5 7.5 4.140624 0 7.5-3.355469 7.5-7.5v-4.234376h51.265624v4.234376c0 4.144531 3.359376 7.5 7.5 7.5 4.144532 0 7.5-3.355469 7.5-7.5v-4.234376h51.269532v4.234376c0 4.144531 3.355468 7.5 7.5 7.5 4.140625 0 7.5-3.355469 7.5-7.5v-4.234376h32.59375l-4.535156 18.132813h-203.652344zm-51.804688 71.652344c0-21.238281 17.28125-38.519531 38.519531-38.519531h11.9375c.007813 0 .015625.003906.023438.003906.007812 0 .019531-.003906.03125-.003906h215.328125.015625.011719 11.945312c21.242188 0 38.519531 17.28125 38.519531 38.519531 0 16.164063-13.148437 29.316406-29.3125 29.316406-12.105469 0-21.953125-9.847656-21.953125-21.953124 0-8.855469 7.207032-16.0625 16.0625-16.0625 4.140625 0 7.5-3.355469 7.5-7.5 0-4.144532-3.359375-7.5-7.5-7.5-16.152344 0-29.457031 12.390624-30.921875 28.164062h-105.574219c-4.144531 0-7.5 3.355469-7.5 7.5s3.355469 7.5 7.5 7.5h107.476563c1.425781 4.101562 3.550781 7.878906 6.242187 11.183594v48.367187h-200.367187v-48.371093c2.6875-3.300782 4.8125-7.078126 6.238281-11.179688h50.359375c4.140625 0 7.5-3.359375 7.5-7.5 0-4.144531-3.359375-7.5-7.5-7.5h-48.453125c-1.46875-15.773438-14.773437-28.164062-30.925781-28.164062-4.140625 0-7.5 3.355468-7.5 7.5 0 4.140624 3.359375 7.5 7.5 7.5 8.859375 0 16.0625 7.203124 16.0625 16.0625 0 12.105468-9.847656 21.953124-21.949219 21.953124-16.164062 0-29.316406-13.152343-29.316406-29.316406zm283.199219 377.214844h-250.0625v-18.136719h9.027343c.011719 0 .023438.003907.039063.003907.011719 0 .023437-.003907.039063-.003907h231.851562c.011719 0 .027344.003907.039062.003907.011719 0 .027344-.003907.039063-.003907h9.027344zm-16.566407-33.136719h-216.933593v-18.128906h216.933593zm-16.566406-33.128906h-183.800781v-183.800781h183.800781zm15.78125-198.800781h-8.242187c-.015625 0-.027344 0-.039063 0-.015625 0-.027344 0-.039062 0h-198.722656c-.015626 0-.027344 0-.039063 0s-.027344 0-.039063 0h-8.246093c-5 0-9.066407-4.066406-9.066407-9.066406s4.066407-9.066407 9.066407-9.066407h215.367187c5 0 9.066406 4.066407 9.066406 9.066407s-4.066406 9.066406-9.066406 9.066406zm0 0"/><path d="m115.183594 157.382812c-4.144532 0-7.5 3.359376-7.5 7.5v16.566407c0 4.144531 3.355468 7.5 7.5 7.5 4.140625 0 7.5-3.355469 7.5-7.5v-16.566407c0-4.140624-3.359375-7.5-7.5-7.5zm0 0"/><path d="m173.164062 188.949219c4.144532 0 7.5-3.355469 7.5-7.5v-16.566407c0-4.140624-3.355468-7.5-7.5-7.5-4.140624 0-7.5 3.359376-7.5 7.5v16.566407c0 4.144531 3.359376 7.5 7.5 7.5zm0 0"/><path d="m231.148438 188.949219c4.140624 0 7.5-3.355469 7.5-7.5v-16.566407c0-4.140624-3.359376-7.5-7.5-7.5-4.140626 0-7.5 3.359376-7.5 7.5v16.566407c0 4.144531 3.359374 7.5 7.5 7.5zm0 0"/><path d="m115.183594 412.601562c4.140625 0 7.5-3.359374 7.5-7.5v-132.535156c0-4.140625-3.359375-7.5-7.5-7.5-4.144532 0-7.5 3.359375-7.5 7.5v132.535156c0 4.140626 3.355468 7.5 7.5 7.5zm0 0"/><path d="m173.164062 412.601562c4.144532 0 7.5-3.359374 7.5-7.5v-132.535156c0-4.140625-3.355468-7.5-7.5-7.5-4.140624 0-7.5 3.359375-7.5 7.5v132.535156c0 4.140626 3.359376 7.5 7.5 7.5zm0 0"/><path d="m231.148438 412.601562c4.140624 0 7.5-3.359374 7.5-7.5v-132.535156c0-4.140625-3.359376-7.5-7.5-7.5-4.140626 0-7.5 3.359375-7.5 7.5v132.535156c0 4.140626 3.359374 7.5 7.5 7.5zm0 0"/></svg>