<svg id="Layer_3" enable-background="new 0 0 64 64" height="512" viewBox="0 0 64 64" width="512" xmlns="http://www.w3.org/2000/svg"><g><path d="m54 3c-4.625 0-8.442 3.507-8.941 8h-10.03l-4.113-9.4-1.832.8 3.762 8.6h-4.846c-.342 0-.659.174-.843.462s-.208.649-.064.959l12.907 27.8v15.365l-5.707 5.707c-.286.286-.372.716-.217 1.09.154.374.52.617.924.617h12c.404 0 .77-.243.924-.617.155-.374.069-.804-.217-1.09l-5.707-5.707v-15.365l9.14-19.686c.917.308 1.875.465 2.86.465 4.963 0 9-4.037 9-9s-4.037-9-9-9zm1 2.08c1.183.17 2.269.636 3.184 1.322l-3.184 3.184zm-2 4.506-3.184-3.184c.915-.686 2.001-1.152 3.184-1.322zm2 4.828 3.184 3.184c-.915.686-2.001 1.152-3.184 1.322zm1.414-1.414h4.506c-.17 1.183-.636 2.269-1.322 3.184zm0-2 3.184-3.184c.686.915 1.152 2.001 1.322 3.184zm-8.012-3.184 3.184 3.184h-4.506c.17-1.183.636-2.269 1.322-3.184zm4.032 5.184-1.857 4h-12.923l-1.75-4zm-2.786 6-8.648 18.625-8.648-18.625zm-15.927-6 1.75 4h-4.048l-1.857-4zm3.693 48 3.586-3.586 3.586 3.586zm15.586-44.471v2.392c-.342-.049-.678-.123-1.008-.221z"/><path d="m28 29h-26c-.553 0-1 .447-1 1v1c0 7.382 5.747 13.433 13 13.949v10.637l-5.707 5.707c-.286.286-.372.716-.217 1.09.154.374.52.617.924.617h12c.404 0 .77-.243.924-.617.155-.374.069-.804-.217-1.09l-5.707-5.707v-10.637c7.253-.516 13-6.567 13-13.949v-1c0-.553-.447-1-1-1zm-16.586 32 3.586-3.586 3.586 3.586zm3.586-18c-5.213 0-9.647-3.347-11.3-8h22.6c-1.653 4.653-6.087 8-11.3 8zm11.819-10h-23.638c-.11-.652-.181-1.317-.181-2h24c0 .683-.071 1.348-.181 2z"/><path d="m10.828 21h1.172c.553 0 1-.447 1-1v-1.172c0-2.061-.836-4.078-2.293-5.535s-3.475-2.293-5.535-2.293h-1.172c-.553 0-1 .447-1 1v1.172c0 2.061.836 4.078 2.293 5.535s3.475 2.293 5.535 2.293zm-5.828-8h.172c1.534 0 3.036.622 4.121 1.707s1.707 2.587 1.707 4.121v.172h-.172c-1.534 0-3.036-.622-4.121-1.707s-1.707-2.587-1.707-4.121z"/><path d="m16 17h1.172c2.061 0 4.078-.836 5.535-2.293s2.293-3.475 2.293-5.535v-1.172c0-.553-.447-1-1-1h-1.172c-2.061 0-4.078.836-5.535 2.293s-2.293 3.475-2.293 5.535v1.172c0 .553.447 1 1 1zm1-2.172c0-1.534.622-3.036 1.707-4.121s2.587-1.707 4.121-1.707h.172v.172c0 1.534-.622 3.036-1.707 4.121s-2.587 1.707-4.121 1.707h-.172z"/></g></svg>