<?xml version="1.0" encoding="UTF-8"?>
<!DOCTYPE svg PUBLIC "-//W3C//DTD SVG 1.1//EN" "http://www.w3.org/Graphics/SVG/1.1/DTD/svg11.dtd">
<!-- Creator: CorelDRAW 2019 (64-Bit) -->
<svg xmlns="http://www.w3.org/2000/svg" xml:space="preserve" width="60px" height="60px" version="1.1" shape-rendering="geometricPrecision" text-rendering="geometricPrecision" image-rendering="optimizeQuality" fill-rule="evenodd" clip-rule="evenodd"
viewBox="0 0 8401 5930"
 xmlns:xlink="http://www.w3.org/1999/xlink">
 <g id="Warstwa_x0020_1">
  <metadata id="CorelCorpID_0Corel-Layer"/>
  <polygon id="obszar" fill="none" points="0,0 8401,0 8401,5930 0,5930 "/>
  <path id="ikona10" fill="#5D6278" fill-rule="nonzero" d="M7150 3885l0 -3251c0,-41 -17,-79 -45,-106 -27,-28 -65,-45 -106,-45l-5596 0c-42,0 -80,17 -107,45 -28,27 -44,65 -44,106l0 3604c0,41 16,79 44,106 27,28 65,45 107,45l2355 0 2 0 881 0 2 0 2356 0c41,0 79,-17 106,-45 28,-27 45,-65 45,-106l0 -353zm-1977 1209l174 0c80,0 152,33 205,85 52,53 85,125 85,205 0,80 -33,152 -85,205 -53,52 -125,85 -205,85l-2293 0c-79,0 -152,-33 -204,-85 -53,-53 -85,-125 -85,-205 0,-80 32,-152 85,-205 52,-52 125,-85 204,-85l177 0c137,0 241,-48 309,-144 57,-79 91,-191 102,-334l-2239 0c-104,0 -199,-43 -268,-111 -68,-69 -110,-163 -110,-267l0 -3604c0,-104 42,-198 110,-267 69,-68 164,-111 268,-111l5596 0c104,0 198,43 267,111 68,69 111,163 111,267l0 3604c0,104 -43,198 -111,267 -69,68 -163,111 -267,111l-2240 0c12,143 45,255 102,334 69,96 172,144 309,144l3 0zm-1460 0l975 0c-41,-55 -74,-118 -100,-191 -29,-84 -48,-180 -56,-287l-663 0c-8,107 -27,203 -56,287 -26,73 -59,136 -100,191zm-659 353l2293 0c17,0 33,-7 44,-19 12,-11 19,-27 19,-44 0,-18 -7,-33 -19,-45 -11,-11 -27,-18 -44,-18l-2293 0c-17,0 -33,7 -44,18 -11,12 -19,27 -19,45 0,17 8,33 19,44 11,12 27,19 44,19zm882 -1411l529 0c31,0 60,13 80,33 21,21 33,49 33,80 0,32 -12,60 -33,81 -20,20 -49,33 -80,33l-529 0c-31,0 -59,-13 -80,-33 -21,-21 -33,-49 -33,-81 0,-31 12,-59 33,-80 21,-20 49,-33 80,-33zm-2378 -3361l5295 0c31,0 59,13 80,33 20,21 33,49 33,80l0 3009c0,31 -13,60 -33,80 -21,20 -49,33 -80,33l-5295 0c-31,0 -59,-13 -80,-33 -20,-20 -33,-49 -33,-80l0 -3009c0,-31 13,-59 33,-80 21,-20 49,-33 80,-33zm114 3008l5067 0 0 -2781 -5067 0 0 2781z"/>
 </g>
</svg>
