<?xml version="1.0" encoding="UTF-8"?>
<!DOCTYPE svg PUBLIC "-//W3C//DTD SVG 1.1//EN" "http://www.w3.org/Graphics/SVG/1.1/DTD/svg11.dtd">
<!-- Creator: CorelDRAW 2019 (64-Bit) -->
<svg xmlns="http://www.w3.org/2000/svg" xml:space="preserve" width="60px" height="60px" version="1.1" shape-rendering="geometricPrecision" text-rendering="geometricPrecision" image-rendering="optimizeQuality" fill-rule="evenodd" clip-rule="evenodd"
viewBox="0 0 8401 5930"
 xmlns:xlink="http://www.w3.org/1999/xlink">
 <g id="Warstwa_x0020_1">
  <metadata id="CorelCorpID_0Corel-Layer"/>
  <polygon id="obszar" fill="none" points="0,0 8401,0 8401,5930 0,5930 "/>
  <path id="ikona14" fill="#5D6278" d="M4821 2536l51 0c31,0 58,13 78,33 20,20 33,47 33,78l0 872 0 277 0 423 0 221 0 476 0 221 0 209c0,31 -13,59 -33,79 -20,20 -47,32 -78,32l-1343 0c-31,0 -58,-12 -78,-32 -20,-20 -33,-48 -33,-79l0 -2699c0,-30 13,-58 33,-78 20,-20 47,-33 78,-33l51 0 0 -471c0,-31 13,-58 33,-78 20,-20 47,-33 78,-33l1 0 0 -1370c0,-19 5,-38 14,-54 9,-16 22,-30 39,-40 16,-10 34,-16 53,-17 18,-1 37,3 54,12l589 294 212 106c17,10 30,23 40,38 10,18 16,38 16,59l0 141 0 374 0 457 1 0c31,0 58,13 78,33 20,20 33,47 33,78l0 471zm-333 -1486l-575 -287 0 1191 575 0 0 -904zm112 1125l-798 0 0 361 798 0 0 -361zm-960 3061l1122 0 0 -2478 -1122 0 0 2478z"/>
 </g>
</svg>
