<?xml version="1.0" encoding="UTF-8"?>
<!DOCTYPE svg PUBLIC "-//W3C//DTD SVG 1.1//EN" "http://www.w3.org/Graphics/SVG/1.1/DTD/svg11.dtd">
<!-- Creator: CorelDRAW 2019 (64-Bit) -->
<svg xmlns="http://www.w3.org/2000/svg" xml:space="preserve" width="60px" height="60px" version="1.1" shape-rendering="geometricPrecision" text-rendering="geometricPrecision" image-rendering="optimizeQuality" fill-rule="evenodd" clip-rule="evenodd"
viewBox="0 0 8401 5930"
 xmlns:xlink="http://www.w3.org/1999/xlink">
 <g id="Warstwa_x0020_1">
  <metadata id="CorelCorpID_0Corel-Layer"/>
  <polygon id="obszar" fill="none" points="0,0 8401,0 8401,5930 0,5930 "/>
  <path id="ikona6" fill="#5D6278" d="M6757 1013c-44,0 -92,-5 -143,-14 -49,-8 -102,-21 -156,-36 -103,-28 -213,-66 -326,-105l-11 -4c-152,-53 -314,-109 -482,-152 -84,-21 -170,-39 -257,-52 -86,-12 -174,-20 -263,-20 -87,0 -166,8 -239,22 -79,15 -152,37 -216,64 -73,31 -137,67 -193,106 -67,47 -121,98 -165,146l-33 38 -72 94 -72 -94 -34 -38c-43,-48 -98,-99 -165,-146 -56,-39 -120,-75 -193,-106 -64,-27 -136,-49 -216,-64 -73,-14 -152,-22 -239,-22 -178,0 -352,30 -520,72 -168,43 -330,99 -481,152l-13 4c-112,39 -222,77 -325,105 -54,15 -107,28 -156,36 -51,9 -99,14 -143,14 -15,0 -28,3 -41,8 -13,6 -25,14 -35,23 -9,10 -17,22 -23,35 -5,12 -8,26 -8,41l0 4073c0,14 3,28 8,41 5,13 14,25 23,35 10,9 22,17 35,23 12,5 26,8 41,8 53,0 107,-5 162,-14 56,-9 113,-22 172,-38 119,-32 241,-74 366,-117l6 -2c301,-104 612,-212 932,-212 68,0 132,6 193,16 62,12 120,29 175,51 55,22 106,50 155,84 48,33 92,72 132,117 5,5 11,10 17,14 6,5 12,8 19,11 7,3 14,6 21,7 7,2 15,2 22,2l369 0c7,0 15,0 22,-2 7,-1 14,-4 21,-7 7,-3 13,-6 19,-11 6,-4 12,-9 17,-14 40,-45 85,-84 133,-117 48,-34 100,-62 154,-84 55,-22 113,-39 175,-51 61,-10 126,-16 193,-16 320,0 631,107 931,211l6 2c126,44 248,86 367,118 59,16 116,29 172,38 55,9 109,14 162,14 15,0 29,-3 41,-8 13,-6 25,-14 35,-23 9,-10 18,-22 23,-35 5,-13 8,-27 8,-41l0 -4073c0,-15 -3,-29 -8,-41 -5,-13 -14,-25 -23,-35 -10,-9 -22,-17 -35,-23 -12,-5 -26,-8 -41,-8zm-1638 -169c319,0 628,107 928,210 48,19 100,35 150,52 46,15 93,31 142,45 47,14 93,27 136,38 43,10 87,19 131,26l45 7 0 3220 -63 -12c-138,-27 -294,-81 -457,-137l-11 -4c-302,-104 -644,-223 -1001,-223 -78,0 -149,6 -215,17 -66,11 -127,28 -183,47 -64,22 -121,49 -173,79 -59,34 -110,71 -154,109l-87 74 0 -3031 4 -10c15,-39 55,-124 130,-214 47,-56 109,-113 188,-163 64,-39 139,-74 227,-97 77,-21 165,-33 263,-33zm-3324 371c44,-7 88,-16 131,-26 43,-11 89,-24 136,-38 49,-14 96,-30 142,-45 48,-17 102,-38 150,-51 299,-104 609,-211 928,-211 98,0 186,12 263,33 88,23 163,58 227,97 79,50 141,107 188,163 75,90 115,175 130,214l4 10 0 3031 -87 -74c-44,-38 -95,-75 -154,-109 -51,-30 -109,-57 -173,-79 -56,-19 -117,-36 -183,-47 -66,-11 -137,-17 -215,-17 -357,0 -699,119 -1000,223l-7 2c-82,28 -163,57 -239,80 -79,25 -154,46 -223,59l-62 13 0 -3221 44 -7zm4793 3852c-35,-7 -72,-15 -110,-26 -36,-9 -75,-21 -115,-33l-119 -39 -127 -44c-151,-52 -311,-108 -478,-150 -84,-21 -169,-39 -257,-52 -86,-12 -174,-20 -263,-20 -80,0 -153,7 -221,18 -73,13 -141,32 -202,55 -68,26 -129,57 -182,90 -62,39 -116,83 -160,125l-15 15 -277 0 -15 -15c-44,-42 -97,-86 -160,-125 -53,-33 -114,-64 -182,-90 -61,-23 -128,-42 -202,-55 -68,-11 -141,-18 -221,-18 -89,0 -177,8 -263,20 -88,13 -173,31 -256,52 -169,43 -330,98 -480,150l-126 44 -119 39c-40,12 -79,24 -115,33 -38,11 -75,19 -110,26l-62 13 0 -423 44 -7c172,-26 357,-90 549,-156l8 -3c149,-52 300,-104 453,-143 79,-21 158,-38 237,-49 79,-12 160,-19 240,-19 68,0 132,5 193,17 62,11 120,27 175,50 55,22 106,50 155,84 48,33 92,72 132,116 5,6 11,11 17,15 6,5 12,8 19,11 7,3 14,5 21,7 7,2 15,2 22,2l369 0c8,0 15,0 22,-2 7,-2 15,-4 21,-7 7,-3 13,-6 19,-11 6,-4 12,-9 17,-14 40,-45 85,-84 133,-117 48,-34 100,-62 154,-84 55,-23 113,-39 175,-50 61,-12 126,-17 193,-17 80,0 161,7 240,19 79,11 158,28 237,49 154,39 306,92 455,144l9 3c192,66 375,129 546,155l45 7 0 423 -63 -13z"/>
 </g>
</svg>
