<?xml version="1.0" encoding="UTF-8"?>
<!DOCTYPE svg PUBLIC "-//W3C//DTD SVG 1.1//EN" "http://www.w3.org/Graphics/SVG/1.1/DTD/svg11.dtd">
<!-- Creator: CorelDRAW 2019 (64-Bit) -->
<svg xmlns="http://www.w3.org/2000/svg" xml:space="preserve" width="266px" height="187px" version="1.1" style="shape-rendering:geometricPrecision; text-rendering:geometricPrecision; image-rendering:optimizeQuality; fill-rule:evenodd; clip-rule:evenodd"
viewBox="0 0 18777 13254"
 xmlns:xlink="http://www.w3.org/1999/xlink">
 <g id="Warstwa_x0020_1">
  <metadata id="CorelCorpID_0Corel-Layer"/>
  <polygon id="obszar" fill="none" points="0,0 18777,0 18777,13254 0,13254 "/>
  <path id="ikona19" fill="#5D6278" d="M14637 3128l-2962 0c-51,0 -94,-42 -94,-94l0 -327c0,-244 -99,-466 -259,-626 -161,-161 -382,-260 -627,-260l-2613 0c-245,0 -467,99 -627,259 -160,161 -260,383 -260,627l0 327c0,52 -42,94 -93,94l-2962 0c-65,0 -123,26 -165,68 -42,42 -68,101 -68,165l0 7187c0,244 99,466 259,626 161,161 382,260 627,260l9191 0c244,0 466,-99 626,-259 161,-161 260,-383 260,-627l0 -7183c-5,-77 -30,-136 -68,-175l-4 -4c-39,-38 -94,-58 -159,-59l-2 1zm-6976 -421c0,-116 47,-221 123,-297 76,-76 182,-123 298,-123l2613 0c116,0 221,47 297,123 76,76 124,181 124,297l0 327c0,52 -42,94 -94,94l-3267 0c-52,0 -94,-42 -94,-94l0 -327zm6609 1019l-1012 3034c-29,86 -83,158 -153,208 -70,51 -155,80 -245,80l-1838 0c-52,0 -94,-42 -94,-94l0 -326c0,-65 -26,-123 -68,-165l-5 -5c-41,-39 -97,-63 -160,-63l-2613 0c-65,0 -123,26 -165,67 -42,43 -68,101 -68,166l0 326c0,52 -42,94 -94,94l-1838 0c-90,0 -175,-29 -245,-80 -70,-50 -125,-122 -153,-208l-1015 -3043c-16,-49 11,-102 59,-118 10,-3 20,-5 30,-5l9591 0c52,0 94,42 94,93 0,14 -3,27 -8,39zm-3808 3228l0 654c0,51 -42,93 -94,93l-1960 0c-51,0 -93,-42 -93,-93l0 -654c0,-51 42,-94 93,-94l1960 0c52,0 94,43 94,94zm3942 3594c0,116 -47,221 -123,297l-6 6c-76,73 -179,117 -291,117l-9191 0c-116,0 -221,-47 -297,-123 -76,-76 -124,-181 -124,-297l0 -5174c0,-52 42,-94 94,-94 45,0 82,31 92,73l518 1555c60,181 175,333 323,439 146,106 327,167 518,167l1838 0c52,0 94,42 94,94l0 326c0,65 26,123 68,165 42,42 100,68 165,68l2613 0c65,0 123,-26 165,-68 42,-42 68,-100 68,-165l0 -326c0,-52 42,-94 94,-94l1838 0c191,0 371,-61 518,-167 147,-106 262,-258 323,-439l521 -1564c16,-48 69,-75 118,-59 39,13 64,50 64,89l0 5174z"/>
 </g>
</svg>
