<?xml version="1.0" encoding="UTF-8"?>
<!DOCTYPE svg PUBLIC "-//W3C//DTD SVG 1.1//EN" "http://www.w3.org/Graphics/SVG/1.1/DTD/svg11.dtd">
<!-- Creator: CorelDRAW 2019 (64-Bit) -->
<svg xmlns="http://www.w3.org/2000/svg" xml:space="preserve" width="60px" height="60px" version="1.1" shape-rendering="geometricPrecision" text-rendering="geometricPrecision" image-rendering="optimizeQuality" fill-rule="evenodd" clip-rule="evenodd"
viewBox="0 0 8401 5930"
 xmlns:xlink="http://www.w3.org/1999/xlink">
 <g id="Warstwa_x0020_1">
  <metadata id="CorelCorpID_0Corel-Layer"/>
  <polygon id="obszar" fill="none" points="0,0 8401,0 8401,5930 0,5930 "/>
  <path id="ikona12" fill="#5D6278" d="M5974 0l-1159 0c-56,0 -105,41 -114,97l-176 1061 -61 0 -233 0 -92 0c-29,-200 -123,-379 -259,-515 -167,-167 -396,-270 -650,-270 -253,0 -483,103 -649,270 -166,166 -269,395 -269,649 0,254 103,483 269,649 68,69 148,127 235,171l-39 129 -67 223c-17,63 -33,125 -46,186 -36,172 -54,343 -55,525 0,7 0,14 0,22 0,402 157,780 441,1064 201,201 448,338 717,401l0 1037 -546 0c-64,0 -116,51 -116,115 0,64 52,116 116,116l1787 0c64,0 116,-52 116,-116 0,-64 -52,-115 -116,-115l-546 0 0 -1037c663,-157 1158,-755 1158,-1465l0 -9c0,-157 -15,-333 -41,-499 0,-4 1,-9 1,-13 0,-18 -4,-35 -12,-50 -20,-117 -46,-225 -77,-321l-339 -1066c-16,-48 -60,-81 -111,-81l-281 0 154 -926 1060 0c64,0 115,-52 115,-116 0,-64 -51,-116 -115,-116zm-2050 1158l-435 0 -16 0 -274 0c-50,0 -94,33 -110,81l-156 482 -55 184c-54,-31 -104,-69 -148,-113 -128,-128 -207,-305 -207,-500 0,-195 79,-372 207,-500 128,-128 305,-207 500,-207 195,0 372,79 500,207 98,98 167,225 194,366zm-451 232l457 0 3 0 210 0 344 0 -195 1170 -1368 0c11,-39 22,-78 35,-118 0,-1 0,-1 0,-2l76 -251 0 0 60 -203 80 -265 109 -331 189 0zm758 4309l-232 0 0 -997 232 0 0 997zm1158 -2511l0 9c0,702 -572,1274 -1274,1274 -341,0 -661,-133 -901,-373 -241,-241 -373,-561 -373,-901 0,-6 0,-13 0,-20 1,-133 12,-260 33,-386l1516 0c1,0 1,0 1,0 0,0 0,0 0,0l969 0c18,135 28,273 29,397zm-432 -1798l314 986c17,55 34,117 48,184l-792 0 194 -1170 236 0z"/>
 </g>
</svg>
