<?xml version="1.0" encoding="UTF-8"?>
<!DOCTYPE svg PUBLIC "-//W3C//DTD SVG 1.1//EN" "http://www.w3.org/Graphics/SVG/1.1/DTD/svg11.dtd">
<!-- Creator: CorelDRAW 2019 (64-Bit) -->
<svg xmlns="http://www.w3.org/2000/svg" xml:space="preserve" width="60px" height="60px" version="1.1" shape-rendering="geometricPrecision" text-rendering="geometricPrecision" image-rendering="optimizeQuality" fill-rule="evenodd" clip-rule="evenodd"
viewBox="0 0 8401 5930"
 xmlns:xlink="http://www.w3.org/1999/xlink">
 <g id="Warstwa_x0020_1">
  <metadata id="CorelCorpID_0Corel-Layer"/>
  <polygon id="obszar" fill="none" points="0,0 8401,0 8401,5930 0,5930 "/>
  <path id="ikona13" fill="#5D6278" d="M8299 2144l-960 -137 -4 -3c-87,-53 -176,-104 -266,-151 -89,-48 -181,-93 -274,-135 -306,-138 -626,-244 -953,-314 -327,-71 -662,-106 -999,-106l-166 0c-397,0 -791,50 -1173,148 -382,97 -752,242 -1101,432l-487 266 -6 0c-280,3 -558,42 -827,115 -268,73 -528,179 -771,318 -96,56 -174,134 -228,227 -54,93 -84,200 -84,310l0 836c0,33 13,63 35,84 21,22 51,35 84,35l488 0 5 15c75,213 229,376 418,467 189,91 413,110 626,35 118,-41 223,-108 309,-194 85,-86 152,-191 193,-308l6 -15 3792 0 5 15c75,213 229,376 418,467 189,91 413,110 626,35 118,-41 223,-108 308,-194 86,-86 153,-191 194,-308l5 -15 67 0c15,0 30,-3 44,-9l456 -183c97,-38 178,-105 234,-188 57,-83 88,-183 88,-288l0 -1140c0,-29 -11,-57 -29,-77 -18,-21 -44,-36 -73,-40zm-4204 421l-282 0c-32,0 -62,13 -83,35 -22,21 -35,51 -35,83 0,33 13,63 35,84 21,22 51,35 83,35l282 0c32,0 62,-13 83,-35 22,-21 35,-51 35,-84 0,-32 -13,-62 -35,-83 -21,-22 -51,-35 -83,-35zm3938 0l-171 0c-32,0 -62,13 -83,35 -22,21 -35,51 -35,83 0,33 13,63 35,84 21,22 51,35 83,35l302 0 0 599c0,57 -17,111 -47,155 -30,45 -74,80 -126,101l-435 175 0 -33 -4 -79 -13 -81 -21 -78 -28 -76 -34 -71c-14,-22 -27,-45 -42,-67l-47 -63c-8,-9 -16,-17 -23,-25l-30 -32 -59 -54 -62 -46c-23,-14 -45,-28 -68,-41l-72 -35 -75 -27 -79 -20 -80 -13 -42 -3 -42 -1c-227,0 -433,92 -582,241 -148,149 -241,355 -241,581l0 23 -1171 0 0 -1452 1571 0c16,0 31,-3 45,-9 14,-6 28,-15 39,-26l376 -376 14 6c76,37 153,76 228,117 75,41 149,84 220,129 7,4 15,8 23,11 7,3 15,5 23,6l884 126 0 201 -131 0zm-6074 1359l0 3c-33,158 -126,288 -251,371 -124,82 -280,117 -437,85l-3 0c-158,-33 -288,-126 -371,-251 -82,-124 -117,-280 -86,-437l1 -3c32,-158 126,-288 251,-371 125,-82 281,-117 440,-85 136,28 253,102 336,203 83,102 132,232 132,371 0,19 -1,38 -3,58 -2,19 -5,37 -9,56zm2523 -92l-2274 0 0 -22c0,-228 -92,-433 -241,-582 -149,-149 -355,-241 -582,-241 -227,0 -432,92 -581,241 -149,149 -241,354 -241,582l0 22 -326 0 0 -718c0,-68 19,-134 52,-191 33,-57 81,-106 140,-140 232,-132 479,-233 734,-301 255,-67 519,-102 785,-102l2556 0 0 1452 -22 0zm0 -1689l-2068 0 103 -57c302,-164 621,-293 951,-384 329,-92 669,-146 1013,-161l23 -1 0 603 -22 0zm282 -608l79 0c285,0 569,27 848,80 278,53 552,133 817,239l31 12 -276 277 -1522 0 0 -608 23 0zm2544 2389l0 3c-33,158 -126,288 -251,371 -124,82 -280,117 -437,85l-3 0c-158,-33 -289,-126 -371,-251 -83,-125 -118,-281 -85,-440 32,-158 126,-288 250,-371 125,-82 282,-117 440,-85 137,28 254,102 337,203 83,102 131,232 131,371 0,19 -1,38 -3,58 -1,19 -4,38 -8,56z"/>
 </g>
</svg>
