<?xml version="1.0" encoding="UTF-8"?>
<!DOCTYPE svg PUBLIC "-//W3C//DTD SVG 1.1//EN" "http://www.w3.org/Graphics/SVG/1.1/DTD/svg11.dtd">
<!-- Creator: CorelDRAW 2019 (64-Bit) -->
<svg xmlns="http://www.w3.org/2000/svg" xml:space="preserve" width="60px" height="60px" version="1.1" shape-rendering="geometricPrecision" text-rendering="geometricPrecision" image-rendering="optimizeQuality" fill-rule="evenodd" clip-rule="evenodd"
viewBox="0 0 8401 5930"
 xmlns:xlink="http://www.w3.org/1999/xlink">
 <g id="Warstwa_x0020_1">
  <metadata id="CorelCorpID_0Corel-Layer"/>
  <polygon id="obszar" fill="none" points="0,0 8401,0 8401,5930 0,5930 "/>
  <path id="ikona1" fill="#ffffffff" d="M3641 2784c120,0 217,-97 217,-216l0 -354c0,-120 -97,-216 -217,-216l-354 0c-119,0 -216,96 -216,216l0 354c0,119 97,216 216,216l354 0zm-1144 -1114l0 3632 144 0 223 0 136 0 867 0 333 0 1199 0 98 0 0 0 40 0 0 0 223 0 144 0 0 -3632 -144 0 0 0 -223 0 -138 0 -2399 0 0 0 -503 0zm-223 3632l0 -3632 -206 0 -145 0 -145 0c-104,0 -190,85 -190,190l0 3252c0,105 86,190 190,190l145 0 145 0 206 0zm3853 -3632l0 3632 206 0 145 0 145 0c105,0 190,-85 190,-190l0 -1181 0 -129 0 -995 0 -342 0 -605c0,-105 -85,-190 -190,-190l-290 0 0 0 -206 0zm496 -224l-1271 0 0 -609c0,-255 -208,-463 -463,-463l-1378 0c-254,0 -462,208 -462,463l0 609 -1271 0c-228,0 -413,186 -413,414l0 3252c0,228 185,413 413,413l2089 0 0 0 1328 0 1428 0c228,0 413,-185 413,-413l0 -1181 0 -129 0 -995 0 -342 0 -605c0,-228 -185,-414 -413,-414zm-3350 -609c0,-132 107,-239 238,-239l1378 0c132,0 239,107 239,239l0 609 -244 0 0 -385c0,-121 -98,-219 -219,-219l-929 0c-121,0 -219,98 -219,219l0 385 -244 0 0 -609zm1388 609l-921 0 0 -381 921 0 0 381zm-998 2177c-34,-35 -80,-55 -129,-55 -1,0 -1,0 -1,0 -49,0 -95,20 -130,54l-214 214c-71,72 -71,188 0,260l777 777c35,35 81,54 130,54l0 0c50,0 96,-18 130,-53l214 -214c72,-72 72,-188 0,-260l-777 -777zm434 1065l-722 -722 158 -158 721 722 -157 158zm1121 -1306c12,-37 4,-77 -21,-106l-199 -240 24 -314c3,-39 -15,-77 -46,-100 -32,-22 -73,-27 -109,-12l-281 119 -281 -119c-36,-15 -77,-10 -109,12 -32,23 -49,61 -46,100l23 314 -199 240c-24,29 -32,69 -20,106 12,36 42,64 79,74l297 73 160 267c20,34 56,55 96,55 39,0 75,-21 95,-55l160 -267 297 -73c38,-10 67,-38 80,-74zm-475 -58c-29,7 -54,25 -69,51l-88 147 -89 -147c-15,-26 -40,-44 -68,-51l-169 -42 114 -138c18,-22 28,-51 25,-80l-13 -177 156 67c28,11 59,11 87,0l156 -67 -13 177c-2,29 7,58 26,80l114 138 -169 42zm-1449 -1103l340 0 0 340 -340 0 0 -340z"/>
 </g>
</svg>
