<?xml version="1.0" encoding="UTF-8"?>
<!DOCTYPE svg PUBLIC "-//W3C//DTD SVG 1.1//EN" "http://www.w3.org/Graphics/SVG/1.1/DTD/svg11.dtd">
<!-- Creator: CorelDRAW 2019 (64-Bit) -->
<svg xmlns="http://www.w3.org/2000/svg" xml:space="preserve" width="60px" height="60px" version="1.1" shape-rendering="geometricPrecision" text-rendering="geometricPrecision" image-rendering="optimizeQuality" fill-rule="evenodd" clip-rule="evenodd"
viewBox="0 0 8401 5930"
 xmlns:xlink="http://www.w3.org/1999/xlink">
 <g id="Warstwa_x0020_1">
  <metadata id="CorelCorpID_0Corel-Layer"/>
  <polygon id="obszar" fill="none" points="0,0 8401,0 8401,5930 0,5930 "/>
  <path id="ikona4" fill="#ffffffff" d="M7304 3082l-504 0 0 -389c0,-76 -61,-136 -136,-136l-4920 0c-75,0 -136,60 -136,136l0 389 -511 0c-75,0 -136,61 -136,136 0,76 61,137 136,137l512 0 0 1149c0,604 432,817 838,817l3528 0c603,0 817,-422 817,-817l0 -1149 512 0c75,0 136,-61 136,-137 0,-75 -61,-136 -136,-136zm-2677 -1784c34,-66 52,-139 53,-213 0,-263 -213,-476 -477,-476 -263,0 -476,213 -476,476 0,74 18,147 53,213 -1139,57 -2180,349 -2180,857 0,75 61,136 136,136 5,1 10,0 14,0l4920 0c75,0 136,-61 136,-136 0,-508 -1036,-800 -2179,-857zm-417 -415c111,0 202,90 202,201 0,111 -91,202 -202,202 -111,0 -202,-91 -202,-202 0,-111 91,-201 202,-201zm-2240 1141c244,-220 1025,-452 2141,-465 86,-1 170,-1 256,1 1085,20 1843,253 2084,464l-4481 0zm4558 2480c0,249 -96,545 -545,545l-3541 0c-212,0 -566,-71 -566,-545l0 -1675 4652 0 0 1675z"/>
 </g>
</svg>
