<?xml version="1.0" encoding="UTF-8"?>
<!DOCTYPE svg PUBLIC "-//W3C//DTD SVG 1.1//EN" "http://www.w3.org/Graphics/SVG/1.1/DTD/svg11.dtd">
<!-- Creator: CorelDRAW 2019 (64-Bit) -->
<svg xmlns="http://www.w3.org/2000/svg" xml:space="preserve" width="60px" height="60px" version="1.1" shape-rendering="geometricPrecision" text-rendering="geometricPrecision" image-rendering="optimizeQuality" fill-rule="evenodd" clip-rule="evenodd"
viewBox="0 0 8401 5930"
 xmlns:xlink="http://www.w3.org/1999/xlink">
 <g id="Warstwa_x0020_1">
  <metadata id="CorelCorpID_0Corel-Layer"/>
  <polygon id="obszar" fill="none" points="0,0 8401,0 8401,5930 0,5930 "/>
  <path fill="#ffffffff" d="M5046 3133c-113,-176 -266,-317 -443,-414 -177,-97 -378,-150 -588,-150 -210,0 -412,53 -589,150 -177,97 -330,238 -443,414l-556 867c-45,70 -77,146 -98,224 -20,79 -27,160 -21,243 5,83 24,163 54,238 31,75 74,145 128,208 54,63 116,117 186,158 69,42 145,73 226,92 81,18 163,24 244,16 80,-8 160,-29 236,-62l10 -4c200,-86 414,-129 628,-128 214,0 428,45 627,132 49,22 100,38 151,49 52,11 104,16 157,16 29,0 58,-1 86,-5 29,-3 58,-8 86,-14 81,-19 157,-50 226,-91 70,-42 133,-96 186,-159 54,-63 97,-133 128,-208 30,-75 49,-155 55,-238 5,-83 -2,-165 -22,-243 -20,-79 -53,-154 -98,-224l-556 -867zm1457 -568c-137,-98 -307,-125 -471,-90 -168,36 -330,137 -447,294 -116,158 -165,342 -151,513 15,170 93,326 230,428 49,36 103,64 159,82 58,18 119,28 181,28 109,0 219,-29 321,-82 99,-53 190,-129 262,-228 117,-157 166,-342 151,-513 -14,-170 -92,-326 -230,-427l-5 -5zm-120 792l-1 1c-74,100 -174,167 -275,194 -103,27 -208,13 -291,-47l-1 -2c-82,-61 -125,-157 -129,-262 -4,-105 31,-220 105,-320 48,-65 107,-116 170,-151 67,-36 138,-56 206,-56 34,0 68,5 101,16 31,10 61,25 88,45 83,61 126,158 130,264 4,104 -30,218 -103,318zm-1440 -727c31,10 62,18 93,23 31,5 62,7 94,7 148,0 295,-54 417,-151 121,-94 218,-229 273,-392 31,-95 46,-193 44,-289 -2,-95 -21,-189 -56,-276 -37,-91 -89,-169 -154,-232 -65,-63 -142,-110 -229,-139 -86,-28 -176,-37 -266,-25 -89,11 -178,42 -262,93 -80,49 -152,113 -210,188 -59,76 -106,163 -137,258l-1 1c-66,200 -55,405 17,574 71,169 203,302 377,360zm-151 -855c22,-66 54,-126 94,-178 40,-52 88,-96 143,-129 51,-31 105,-51 158,-58 53,-8 107,-3 158,14 50,17 96,45 134,83 38,38 70,86 92,141 24,59 37,123 37,189 1,64 -9,131 -30,195l-1 4c-44,132 -127,238 -226,301 -100,64 -215,86 -323,52l-4 -1c-109,-37 -190,-124 -231,-236 -41,-110 -45,-245 -1,-377zm-1156 643c201,0 383,-93 515,-243 133,-152 216,-361 216,-592 0,-231 -83,-440 -216,-591 -132,-151 -314,-244 -515,-244 -201,0 -383,93 -515,244 -133,151 -215,360 -215,591 0,231 82,440 215,592 132,150 314,243 515,243zm0 -1415c132,0 251,66 337,172 85,105 138,249 138,408 0,159 -53,303 -138,408 -86,106 -205,172 -337,172 -132,0 -251,-66 -337,-172 -85,-105 -138,-249 -138,-408 0,-159 53,-303 138,-408 86,-106 205,-172 337,-172zm-1086 2096c79,-30 149,-78 207,-139 57,-61 103,-136 133,-223 29,-82 43,-170 40,-258 -2,-89 -20,-179 -53,-266 -34,-86 -81,-165 -139,-233 -58,-67 -126,-123 -203,-165 -80,-43 -164,-69 -248,-75 -84,-7 -167,5 -247,35 -159,61 -276,191 -335,351 -60,161 -62,352 8,535 56,144 148,262 258,344 114,84 247,131 380,131 34,0 68,-3 102,-9 32,-6 65,-16 97,-28zm-598 -530c-44,-116 -47,-236 -15,-336 32,-101 100,-183 195,-219 17,-7 35,-12 53,-15 19,-4 37,-6 56,-6 28,0 58,4 87,12 28,8 57,20 85,35 50,27 96,64 134,109 38,45 69,98 91,156 23,58 35,118 37,177 2,59 -7,117 -26,171 -17,49 -43,93 -75,128 -32,34 -69,61 -111,78l-5 2c-96,36 -200,21 -292,-32 -91,-53 -169,-144 -214,-260zm3393 2178c-74,87 -171,144 -275,167 -104,24 -216,15 -320,-31 -116,-51 -237,-89 -359,-115 -124,-26 -250,-39 -376,-39 -127,0 -253,13 -377,39 -122,26 -243,64 -359,115l-6 3c-104,44 -215,52 -318,28 -102,-25 -198,-81 -271,-167 -74,-86 -115,-191 -122,-297 -8,-107 19,-216 80,-312l556 -867c90,-139 211,-251 351,-328 140,-77 300,-118 466,-118 166,0 325,41 465,118 141,77 262,189 351,328l556 867c61,96 88,205 81,312 -8,106 -49,211 -123,297z"/>
 </g>
</svg>
