<?xml version="1.0" encoding="UTF-8"?>
<!DOCTYPE svg PUBLIC "-//W3C//DTD SVG 1.1//EN" "http://www.w3.org/Graphics/SVG/1.1/DTD/svg11.dtd">
<!-- Creator: CorelDRAW 2019 (64-Bit) -->
<svg xmlns="http://www.w3.org/2000/svg" xml:space="preserve" width="60px" height="60px" version="1.1" shape-rendering="geometricPrecision" text-rendering="geometricPrecision" image-rendering="optimizeQuality" fill-rule="evenodd" clip-rule="evenodd"
viewBox="0 0 8401 5930"
 xmlns:xlink="http://www.w3.org/1999/xlink">
 <g id="Warstwa_x0020_1">
  <metadata id="CorelCorpID_0Corel-Layer"/>
  <polygon id="obszar" fill="none" points="0,0 8401,0 8401,5930 0,5930 "/>
  <path id="ikona15" fill="#ffffffff" d="M6210 2413l-562 0 0 -1727c0,-30 -13,-57 -32,-76 -19,-20 -46,-32 -76,-32l-1545 0c-21,0 -42,6 -58,17 -17,11 -31,26 -40,45 -9,19 -12,40 -9,60 2,20 11,40 25,56l326 384 -326 383c-14,17 -23,36 -25,56 -3,20 0,41 9,60 9,19 23,35 40,46 16,10 36,16 58,16l1437 0 0 712 -562 0c-29,0 -57,12 -76,32 -20,19 -31,46 -31,76l0 800 -1232 0c-30,0 -57,12 -76,32 -19,19 -32,46 -32,76l0 800 -1231 0c-30,0 -57,12 -76,31 -20,20 -32,47 -32,77l0 907c0,30 12,57 32,76 19,20 46,32 76,32l4018 0c29,0 56,-12 76,-32 19,-19 31,-46 31,-76l0 -2723c0,-30 -12,-57 -31,-76 -20,-20 -47,-32 -76,-32zm-1862 -1068l115 -136c17,-19 26,-44 26,-69 0,-25 -9,-50 -26,-70l-235 -277 1204 0 0 693 -1204 0 120 -141zm1668 3792l-3717 0 0 -693 1232 0c30,0 57,-12 76,-31 20,-20 32,-47 32,-76l0 -801 1231 0c30,0 57,-12 77,-31 19,-19 31,-46 31,-76l0 -800 1124 0 0 2508 -86 0z"/>
 </g>
</svg>
