<?xml version="1.0" encoding="UTF-8"?>
<!DOCTYPE svg PUBLIC "-//W3C//DTD SVG 1.1//EN" "http://www.w3.org/Graphics/SVG/1.1/DTD/svg11.dtd">
<!-- Creator: CorelDRAW 2019 (64-Bit) -->
<svg xmlns="http://www.w3.org/2000/svg" xml:space="preserve" width="266px" height="187px" version="1.1" style="shape-rendering:geometricPrecision; text-rendering:geometricPrecision; image-rendering:optimizeQuality; fill-rule:evenodd; clip-rule:evenodd"
viewBox="0 0 7785 5495"
 xmlns:xlink="http://www.w3.org/1999/xlink">
 <g id="Warstwa_x0020_1">
  <metadata id="CorelCorpID_0Corel-Layer"/>
  <polygon id="obszar" fill="none" points="0,0 7785,0 7785,5495 0,5495 "/>
  <path class="fil1" fill="#ffffffff" d="M5407 1017c-102,-45 -221,-80 -350,-104 -129,-24 -269,-36 -413,-36 -143,0 -283,12 -412,36 -129,24 -248,59 -350,104 -116,51 -206,113 -266,182 -59,69 -91,144 -91,224l0 976 -21 -7c-55,-17 -111,-30 -169,-39 -56,-9 -114,-13 -173,-13 -314,0 -599,128 -806,334 -206,206 -334,491 -334,806 0,314 128,599 334,805 207,206 492,334 806,334 212,0 412,-58 582,-160 176,-105 322,-256 420,-437l6 -11 12 2c73,16 148,27 226,35 76,8 156,12 236,12 144,0 284,-13 413,-37 129,-23 248,-59 350,-104 116,-51 205,-113 266,-182 59,-68 90,-144 90,-224l0 -2090c0,-80 -31,-155 -90,-224 -61,-69 -150,-131 -266,-182zm-2097 2360l-238 0c-31,0 -59,-13 -80,-33 -20,-21 -33,-49 -33,-80 0,-32 13,-60 33,-81 21,-20 49,-33 80,-33l384 0 0 -188 -200 0 0 -149 -188 0 0 149 -16 1c-78,5 -149,41 -200,95 -50,54 -81,126 -81,206 0,83 34,158 88,213 55,54 130,88 213,88l238 0c33,0 64,14 86,36 22,22 36,52 36,86 0,34 -14,64 -36,86 -22,22 -53,36 -86,36l-495 0 0 188 253 0 0 149 188 0 0 -149 54 0c85,0 163,-35 219,-91 56,-56 90,-134 90,-219 0,-85 -34,-163 -90,-219 -56,-56 -134,-91 -219,-91zm647 -2188c91,-40 198,-71 315,-93 116,-21 242,-32 372,-32 130,0 256,11 373,32 116,22 223,53 314,93 74,32 134,70 176,109 44,41 68,84 68,125 0,40 -24,83 -68,124 -42,39 -102,77 -176,110 -91,40 -197,71 -314,92 -117,21 -243,32 -373,32 -130,0 -256,-11 -372,-32 -117,-21 -224,-52 -315,-92 -74,-33 -134,-71 -176,-110 -43,-41 -68,-84 -68,-124 0,-41 25,-84 69,-125 41,-39 101,-77 175,-109zm-795 3243c-262,0 -501,-107 -673,-280 -172,-172 -279,-410 -279,-672 0,-263 107,-501 279,-673 173,-173 411,-280 673,-280 262,0 500,107 673,280 172,172 279,410 279,673 0,262 -107,500 -279,672 -173,173 -411,280 -673,280zm2169 -685c-91,40 -198,72 -314,93 -117,21 -243,32 -373,32 -65,0 -130,-3 -194,-9 -64,-5 -126,-14 -186,-25l-19 -3 6 -18c14,-46 26,-93 34,-141 8,-48 13,-96 16,-146l0 -18 19 3c52,7 105,13 160,16 53,4 108,6 164,6 144,0 284,-13 413,-36 129,-24 248,-59 350,-105 27,-11 52,-24 75,-36 24,-13 47,-27 67,-40l26 -18 0 211c0,41 -24,84 -68,125 -42,39 -102,77 -176,109zm0 -522c-91,40 -197,71 -314,92 -116,21 -243,32 -373,32 -59,0 -117,-2 -174,-7 -57,-4 -113,-11 -167,-20l-12 -2 -2 -12c-8,-54 -21,-107 -36,-158 -16,-53 -35,-104 -58,-152l-14 -30 32 6c68,13 139,23 211,30 71,7 145,10 220,10 144,0 284,-12 413,-36 129,-24 248,-59 350,-104 27,-12 52,-24 75,-37 24,-13 47,-26 67,-40l26 -17 0 211c0,40 -24,83 -68,124 -42,39 -102,77 -176,110zm0 -523c-91,40 -198,71 -314,92 -117,21 -243,32 -373,32 -114,0 -227,-8 -333,-25 -106,-17 -204,-42 -291,-74l-4 -1 -3 -4c-42,-46 -87,-90 -136,-129 -49,-40 -101,-75 -155,-106l-9 -5 0 -225 26 17c21,14 44,28 67,40 24,13 49,25 76,37 102,45 221,80 350,104 129,24 269,36 412,36 144,0 284,-12 413,-36 129,-24 248,-59 350,-104 27,-12 52,-24 75,-37 24,-12 47,-26 67,-40l26 -17 0 211c0,40 -24,83 -68,124 -42,39 -102,77 -176,110zm0 -523c-91,40 -197,72 -314,93 -117,21 -243,32 -373,32 -130,0 -256,-11 -372,-32 -117,-21 -224,-53 -315,-93 -74,-32 -134,-70 -176,-109 -43,-41 -68,-84 -68,-125l0 -211 26 18c21,13 44,27 68,40 23,12 48,25 75,36 102,46 221,81 350,105 129,23 269,36 412,36 144,0 284,-13 413,-36 129,-24 248,-59 350,-105 26,-11 52,-24 75,-36 24,-13 47,-27 67,-40l26 -18 0 211c0,41 -24,84 -68,125 -42,39 -102,77 -176,109z"/>
 </g>
</svg>
