<?xml version="1.0" encoding="UTF-8"?>
<!DOCTYPE svg PUBLIC "-//W3C//DTD SVG 1.1//EN" "http://www.w3.org/Graphics/SVG/1.1/DTD/svg11.dtd">
<!-- Creator: CorelDRAW 2019 (64-Bit) -->
<svg xmlns="http://www.w3.org/2000/svg" xml:space="preserve" width="60px" height="60px" version="1.1" shape-rendering="geometricPrecision" text-rendering="geometricPrecision" image-rendering="optimizeQuality" fill-rule="evenodd" clip-rule="evenodd"
viewBox="0 0 8401 5930"
 xmlns:xlink="http://www.w3.org/1999/xlink">
 <g id="Warstwa_x0020_1">
  <metadata id="CorelCorpID_0Corel-Layer"/>
  <polygon id="obszar" fill="none" points="0,0 8401,0 8401,5930 0,5930 "/>
  <path id="ikona9" fill="#ffffffff" d="M5562 2921l-268 0c157,-350 261,-721 310,-1103l45 -359c6,-46 -17,-91 -59,-112 -41,-21 -91,-14 -125,17l-36 34c-153,142 -289,298 -408,465 96,-463 220,-931 355,-1225l0 -1c21,-45 9,-99 -30,-131 -39,-31 -94,-33 -134,-3 -218,158 -415,347 -583,558 31,-259 102,-515 211,-751 19,-43 10,-93 -24,-125 -33,-33 -84,-40 -125,-19l-203 101c-316,159 -535,447 -605,783 -151,-174 -337,-316 -547,-416l-296 -142c-43,-20 -94,-11 -127,24 -33,35 -39,87 -16,128l20 36c202,368 355,759 457,1164 -75,-55 -155,-104 -240,-145l-248 -118c-43,-21 -94,-11 -127,24 -33,35 -39,86 -16,128l16 30c200,363 342,753 424,1158l-344 0c-61,0 -110,49 -110,110l0 1817c0,512 416,928 928,928l1087 0c512,0 928,-416 928,-928l0 -1817c0,-61 -49,-110 -110,-110zm-171 -1170l-5 39c-50,394 -163,774 -335,1131l-284 0c112,-437 325,-835 624,-1170zm-366 -803c-179,567 -300,1276 -339,1519 0,0 0,1 0,1 -60,147 -108,298 -145,453l-350 0c5,-745 311,-1456 834,-1973zm-947 339c0,-330 172,-629 453,-794 -91,276 -139,568 -139,857l0 31c0,7 1,14 2,20 -33,56 -65,113 -95,171 -22,44 -43,89 -63,134 -38,-135 -92,-265 -163,-388 3,-10 5,-20 5,-31zm-837 -455l0 0c505,241 832,756 837,1315 -69,252 -105,513 -106,774l-23 0c-13,-245 -88,-483 -219,-692 -22,-35 -46,-68 -71,-101 -81,-450 -221,-885 -418,-1296zm-156 1089c372,198 618,580 644,1000l-322 0c-66,-346 -174,-682 -322,-1000zm2367 2927c0,391 -317,709 -708,709l-1087 0c-391,0 -708,-318 -708,-709 0,-569 0,-1138 0,-1707l1679 0c1,0 1,0 1,0l490 0c0,0 1,0 1,0 0,0 0,0 0,0l332 0 0 1707z"/>
 </g>
</svg>
