<?xml version="1.0" encoding="UTF-8"?>
<!DOCTYPE svg PUBLIC "-//W3C//DTD SVG 1.1//EN" "http://www.w3.org/Graphics/SVG/1.1/DTD/svg11.dtd">
<!-- Creator: CorelDRAW 2019 (64-Bit) -->
<svg xmlns="http://www.w3.org/2000/svg" xml:space="preserve" width="60px" height="60px" version="1.1" shape-rendering="geometricPrecision" text-rendering="geometricPrecision" image-rendering="optimizeQuality" fill-rule="evenodd" clip-rule="evenodd"
viewBox="0 0 8401 5930"
 xmlns:xlink="http://www.w3.org/1999/xlink">
 <g id="Warstwa_x0020_1">
  <metadata id="CorelCorpID_0Corel-Layer"/>
  <polygon id="obszar" fill="none" points="0,0 8401,0 8401,5930 0,5930 "/>
  <path id="ikona8" fill="#ffffffff" d="M7363 735c-20,-20 -46,-31 -74,-30 -79,1 -1953,33 -2890,970 -119,119 -223,252 -311,396 -27,-30 -55,-60 -84,-90 -938,-937 -2812,-968 -2892,-969 -27,-1 -54,10 -73,29 -20,20 -31,47 -30,74 1,79 33,1954 970,2891 669,670 1708,772 2279,772 166,0 292,-9 358,-14l432 432c41,39 104,39 144,-1 39,-39 40,-103 1,-143l-433 -433c4,-42 9,-107 12,-191 507,-69 1176,-253 1650,-729 938,-937 969,-2811 971,-2891 0,-27 -11,-54 -30,-73l0 0zm-2436 2580l-210 211c37,230 56,462 58,695 471,-68 1077,-240 1503,-666l0 -1c756,-755 885,-2231 906,-2640 -410,21 -1886,150 -2641,905 -125,127 -232,269 -319,424 195,278 336,591 417,920l28 123c561,-562 1121,-1124 1682,-1685 26,-26 64,-37 99,-28 36,9 64,37 73,73 10,36 -1,74 -27,100 -503,503 -1006,1006 -1509,1509l-60 60zm-2308 -837l-568 -569c-26,-27 -64,-37 -100,-28 -36,10 -63,38 -73,73 -9,36 1,74 28,100l568 568c649,649 1298,1299 1947,1948 -477,15 -1617,-27 -2298,-708 -755,-756 -884,-2232 -906,-2642 410,21 1886,150 2642,906 681,681 722,1822 707,2298 -657,-657 -1277,-1295 -1947,-1946z"/>
 </g>
</svg>
