<?xml version="1.0" encoding="UTF-8"?>
<!DOCTYPE svg PUBLIC "-//W3C//DTD SVG 1.1//EN" "http://www.w3.org/Graphics/SVG/1.1/DTD/svg11.dtd">
<!-- Creator: CorelDRAW 2019 (64-Bit) -->
<svg xmlns="http://www.w3.org/2000/svg" xml:space="preserve" width="60px" height="60px" version="1.1" shape-rendering="geometricPrecision" text-rendering="geometricPrecision" image-rendering="optimizeQuality" fill-rule="evenodd" clip-rule="evenodd"
viewBox="0 0 8401 5930"
 xmlns:xlink="http://www.w3.org/1999/xlink">
 <g id="Warstwa_x0020_1">
  <metadata id="CorelCorpID_0Corel-Layer"/>
  <polygon id="obszar" fill="none" points="0,0 8401,0 8401,5930 0,5930 "/>
  <path id="ikona7" fill="#ffffffff" d="M5708 4895l-182 -472c-15,-39 -52,-64 -94,-64l-12 0 0 -1874c18,0 36,-1 54,-3 353,-33 501,-310 490,-554 -12,-259 -198,-520 -533,-564l0 -343 256 0c172,0 313,-140 313,-313 0,-173 -141,-313 -313,-313l-2972 0c-173,0 -314,140 -314,313 0,173 141,313 314,313l255 0 0 343c-335,44 -521,306 -533,564 -11,244 138,521 490,554 18,2 36,2 54,3l0 1874 -12 0c-41,0 -79,25 -94,64l-182 472c-168,10 -301,150 -301,320 0,177 144,320 321,320l2976 0c177,0 320,-143 320,-320 0,-170 -133,-310 -301,-320l0 0zm-1034 -536l188 0 356 0 0 -1912c-55,-23 -105,-55 -145,-97 -48,-50 -101,-132 -110,-255l-101 0 -188 0 -203 0 -548 0 -203 0 -141 0 -141 0c-9,123 -61,205 -110,255 -40,42 -89,74 -145,97l0 1912 396 0 141 0 203 0 548 0 203 0zm-930 -3002l913 0 237 0 335 0 0 -336 -2057 0 0 336 418 0 154 0zm913 202l-913 0 -154 0 -519 0c-285,1 -423,197 -432,379l0 0c-6,144 70,321 307,343 97,9 185,-18 237,-71 44,-46 61,-112 52,-197 -1,0 -1,-1 -1,-1 -12,-72 -80,-92 -122,-89 -62,6 -62,49 -62,63 0,56 -45,101 -101,101 -56,0 -101,-45 -101,-101 0,-143 101,-251 246,-264 117,-10 252,47 312,171l1579 0c23,-58 67,-107 128,-140 101,-56 231,-55 321,2 82,52 126,144 119,253 -3,54 -48,95 -101,95 -2,0 -4,0 -6,0 -56,-3 -98,-51 -95,-107 3,-52 -18,-66 -25,-70 -29,-18 -79,-16 -116,4 -27,15 -41,36 -42,61 0,6 0,11 -1,16 -11,87 6,156 52,203 51,53 139,80 236,71 237,-22 314,-199 307,-344 -8,-182 -147,-378 -432,-378l-436 0 -237 0zm-2054 -851c0,-61 50,-111 112,-111l2972 0c61,0 111,50 111,111 0,61 -50,111 -111,111l-2972 0c-62,0 -112,-50 -112,-111zm436 3853l2323 0 129 333 -2581 0 129 -333zm2650 772l-2976 0c-66,0 -119,-53 -119,-118 0,-65 53,-118 119,-118l2976 0c65,0 118,53 118,118 0,65 -53,118 -118,118l0 0z"/>
 </g>
</svg>
