<?xml version="1.0" encoding="UTF-8"?>
<!DOCTYPE svg PUBLIC "-//W3C//DTD SVG 1.1//EN" "http://www.w3.org/Graphics/SVG/1.1/DTD/svg11.dtd">
<!-- Creator: CorelDRAW 2019 (64-Bit) -->
<svg xmlns="http://www.w3.org/2000/svg" xml:space="preserve" width="60px" height="60px" version="1.1" shape-rendering="geometricPrecision" text-rendering="geometricPrecision" image-rendering="optimizeQuality" fill-rule="evenodd" clip-rule="evenodd"
viewBox="0 0 8401 5930"
 xmlns:xlink="http://www.w3.org/1999/xlink">
 <g id="Warstwa_x0020_1">
  <metadata id="CorelCorpID_0Corel-Layer"/>
  <polygon id="obszar" fill="none" points="0,0 8401,0 8401,5930 0,5930 "/>
  <path id="ikona5" fill="#ffffffff" d="M4201 311c1466,0 2654,1188 2654,2654 0,1466 -1188,2655 -2654,2655 -1466,0 -2655,-1189 -2655,-2655 0,-1466 1189,-2654 2655,-2654zm1414 2016c-118,14 -218,33 -303,60 407,711 566,1609 605,2260 403,-411 659,-967 683,-1582 -278,-342 -646,-776 -985,-738zm-1214 -1367c54,-72 45,-224 38,-358 -1,-6 -1,-12 -1,-18 -76,-7 -153,-11 -231,-11 -298,0 -584,55 -847,155 188,90 479,245 802,475 110,-95 193,-183 239,-243zm-1207 754c286,-60 555,-204 769,-356 -447,-308 -820,-468 -894,-498 -464,251 -835,650 -1051,1134 281,-112 585,-168 883,-224 97,-18 197,-36 293,-56zm338 779c308,-284 634,-539 932,-744 -99,-88 -199,-169 -297,-243 -247,186 -571,369 -924,442 -99,21 -200,40 -298,58 -376,70 -738,137 -1042,307 -60,209 -92,428 -92,656 0,509 159,980 430,1368 175,-694 776,-1370 1291,-1844zm1138 -881c285,-182 531,-307 691,-355 143,-43 283,-74 416,-97 -307,-267 -683,-457 -1098,-540 10,167 14,351 -87,484 -48,64 -129,151 -234,245 103,80 208,168 312,263zm180 171c26,26 51,52 76,79 94,98 179,205 256,318 113,-43 246,-73 406,-91 375,-42 709,255 996,583 -62,-497 -275,-946 -592,-1300 -173,20 -366,56 -563,114 -129,39 -335,144 -579,297zm-315 1238c98,-333 212,-573 433,-729 -67,-95 -138,-184 -215,-265 -36,-38 -72,-74 -108,-109 -885,602 -2097,1708 -2207,2667 368,402 871,678 1438,756 206,-410 401,-1246 516,-1742 56,-239 103,-445 143,-578zm230 67c-38,127 -85,330 -139,565 -162,693 -316,1314 -496,1710 26,1 51,2 77,2 558,0 1072,-192 1479,-512 -16,-681 -179,-1644 -591,-2359 -159,119 -245,305 -330,594z"/>
 </g>
</svg>
