<?xml version="1.0" encoding="UTF-8"?>
<!DOCTYPE svg PUBLIC "-//W3C//DTD SVG 1.1//EN" "http://www.w3.org/Graphics/SVG/1.1/DTD/svg11.dtd">
<!-- Creator: CorelDRAW 2019 (64-Bit) -->
<svg xmlns="http://www.w3.org/2000/svg" xml:space="preserve" width="60px" height="60px" version="1.1" shape-rendering="geometricPrecision" text-rendering="geometricPrecision" image-rendering="optimizeQuality" fill-rule="evenodd" clip-rule="evenodd"
viewBox="0 0 8401 5930"
 xmlns:xlink="http://www.w3.org/1999/xlink">
 <g id="Warstwa_x0020_1">
  <metadata id="CorelCorpID_0Corel-Layer"/>
  <polygon id="obszar" fill="none" points="0,0 8401,0 8401,5930 0,5930 "/>
  <path id="ikona2" fill="#5D6278" d="M1163 2294c28,136 75,264 140,381 211,379 310,774 310,1131l0 1479c0,66 54,119 120,119l479 0c66,0 120,-53 120,-119l0 -1337c0,-270 62,-540 180,-784l11 -17c567,472 1021,1074 1317,1747 137,310 439,510 770,510l980 0c473,0 844,-9 1121,-57 137,-24 555,-96 555,-422 0,-184 -152,-452 -389,-682 -159,-154 -493,-424 -948,-490 -35,-6 -71,5 -97,29 -119,107 -352,185 -554,185 -286,0 -590,-164 -706,-381 -2,-4 -5,-8 -8,-12l-799 -1141c-495,-706 -1086,-1338 -1756,-1881 -44,-35 -106,-35 -150,0 -187,149 -343,327 -463,530 -233,390 -308,836 -233,1209 0,1 0,2 0,3l0 0zm929 1654l0 1217 -239 0 0 -1359c0,-36 -1,-75 -4,-115 -36,-656 -321,-1090 -375,-1208 304,141 592,313 860,514 -129,210 -242,577 -242,951l0 0zm-491 -2744c90,-150 202,-285 334,-403 621,514 1171,1109 1634,1770l795 1135c159,290 542,501 914,501 236,0 500,-84 667,-209 363,69 633,288 765,417 208,202 317,410 317,510 0,103 -194,158 -357,186 -260,45 -620,54 -1080,54l-980 0c-236,0 -452,-144 -550,-367 -519,-1179 -1477,-2119 -2673,-2615 -44,-295 22,-656 214,-979l0 0zm0 0z"/>
 </g>
</svg>
