<?xml version="1.0" encoding="UTF-8"?>
<!DOCTYPE svg PUBLIC "-//W3C//DTD SVG 1.1//EN" "http://www.w3.org/Graphics/SVG/1.1/DTD/svg11.dtd">
<!-- Creator: CorelDRAW 2019 (64-Bit) -->
<svg xmlns="http://www.w3.org/2000/svg" xml:space="preserve" width="60px" height="60px" version="1.1" shape-rendering="geometricPrecision" text-rendering="geometricPrecision" image-rendering="optimizeQuality" fill-rule="evenodd" clip-rule="evenodd"
viewBox="0 0 8401 5930"
 xmlns:xlink="http://www.w3.org/1999/xlink">
 <g id="Warstwa_x0020_1">
  <metadata id="CorelCorpID_0Corel-Layer"/>
  <polygon id="obszar" fill="none" points="0,0 8401,0 8401,5930 0,5930 "/>
  <path id="ikona11" fill="#5D6278" d="M5634 3090c0,-61 -25,-117 -65,-157 -41,-41 -97,-66 -158,-66 -62,0 -118,25 -158,66 -41,40 -65,96 -65,157 0,62 24,118 65,158 40,41 96,66 158,66 61,0 117,-25 158,-66 40,-40 65,-96 65,-158zm1335 579c-6,-157 -23,-323 -49,-490 -26,-172 -61,-347 -103,-515 -43,-166 -92,-326 -147,-473 -50,-136 -105,-261 -164,-370 -240,-422 -489,-600 -756,-652 -267,-52 -555,22 -870,105l-54 13c-187,45 -385,93 -589,113 -16,1 -57,1 -73,0 -204,-20 -402,-68 -589,-113l-64 -16c-620,-157 -1139,-288 -1616,556 -62,115 -121,247 -174,391 -53,142 -99,295 -137,453 -42,168 -77,343 -103,515 -26,167 -43,333 -49,490 -7,176 -2,328 14,458 17,129 44,237 81,326 37,80 83,146 137,196 53,50 114,85 184,105 64,17 135,22 208,14 72,-8 147,-28 224,-62 128,-52 265,-133 407,-234 156,-111 318,-246 477,-395 107,-103 257,-180 430,-233 185,-57 396,-85 607,-85 210,0 421,28 606,85 173,53 324,131 430,233 159,149 321,284 477,395 141,101 279,182 407,234 80,31 158,52 232,60 71,8 138,4 199,-12 67,-20 129,-53 183,-103 55,-50 102,-118 139,-205 37,-86 65,-192 81,-321 16,-130 21,-284 14,-463zm-295 702c-21,51 -47,91 -77,122 -30,31 -65,52 -102,63 -41,11 -86,14 -136,8 -50,-7 -104,-21 -162,-43 -119,-47 -247,-122 -379,-216 -142,-102 -290,-227 -435,-365 -126,-126 -298,-221 -494,-286 -211,-70 -450,-105 -688,-105 -238,0 -474,34 -685,101 -199,64 -375,156 -505,276 -144,133 -287,255 -423,355 -138,101 -270,181 -390,226 -57,22 -111,38 -160,45 -51,7 -97,5 -139,-9 -38,-12 -72,-33 -102,-64 -30,-30 -55,-71 -77,-122 -30,-70 -51,-162 -64,-279 -11,-109 -14,-241 -7,-397 7,-154 23,-319 48,-486 25,-159 57,-321 98,-478 40,-156 86,-306 137,-445 48,-128 100,-245 157,-346 195,-350 407,-498 638,-539 229,-42 475,21 741,91 108,28 217,56 330,79 111,23 227,42 348,53l102 0c125,-11 242,-30 355,-53 113,-23 222,-51 330,-79l14 -3c530,-133 978,-245 1365,451 58,103 111,221 159,351 51,135 96,283 135,440 40,168 74,339 100,506 23,156 40,310 47,458 6,161 3,296 -10,409 -13,114 -37,206 -69,281zm-3127 -2045c-34,-30 -71,-57 -110,-77 -39,-19 -82,-32 -128,-36l-18 -1 -1 -17c-3,-43 -15,-86 -33,-125 -18,-40 -43,-76 -72,-106l-7 -7c-37,-37 -79,-65 -124,-84 -45,-18 -95,-28 -147,-28 -51,0 -101,11 -146,29 -48,20 -91,49 -125,83 -31,31 -58,69 -79,112 -18,39 -30,82 -33,126l-2 17 -17 1c-45,3 -86,14 -125,31 -41,19 -79,44 -113,75l-7 7c-36,36 -65,78 -83,124 -19,45 -29,94 -29,147 0,51 11,101 30,146 19,47 48,90 82,124 34,34 70,60 110,79 40,19 85,31 135,34l17 1 2 17c3,47 15,92 34,132 19,40 45,76 77,105l1 1c37,37 78,65 124,84 45,19 94,28 147,28 51,0 101,-10 146,-29 48,-20 90,-48 124,-82 30,-34 57,-71 77,-110 20,-40 33,-83 36,-129l1 -17 18 -1c46,-3 91,-15 132,-34 40,-19 75,-45 105,-78l0 -1c37,-36 65,-78 84,-124 19,-45 29,-94 29,-146 0,-52 -11,-101 -30,-146 -20,-48 -48,-91 -82,-125zm-146 389c-16,16 -34,28 -54,36 -20,8 -41,12 -65,12l-97 0c-30,0 -59,12 -79,33 -20,20 -33,47 -33,79l0 90c0,24 -4,45 -12,65 -8,20 -20,38 -36,54 -15,16 -33,28 -53,36 -20,7 -42,11 -65,11 -24,0 -45,-4 -65,-11 -20,-8 -38,-20 -54,-36 -16,-16 -28,-34 -35,-54 -8,-20 -12,-41 -12,-65l0 -97c0,-30 -13,-59 -33,-80 -20,-19 -48,-32 -79,-32l-98 0c-47,0 -87,-16 -118,-48 -13,-13 -26,-31 -36,-52 -7,-17 -12,-38 -12,-59 0,-24 4,-46 12,-65 8,-20 20,-38 36,-54l9 -9c16,-12 34,-22 53,-29 18,-6 37,-10 56,-10l98 0c30,0 59,-12 79,-33 20,-19 33,-47 33,-79l0 -97c0,-23 4,-45 12,-65 7,-20 19,-38 35,-54 16,-15 34,-27 54,-35 20,-8 41,-12 65,-12 23,0 45,4 65,12 20,8 38,19 53,35 3,3 8,7 9,10 12,16 22,34 29,53 6,18 10,37 10,56l0 97c0,30 13,59 33,80 20,20 48,32 79,32l97 0c24,0 45,4 65,12 20,8 38,20 54,36 16,16 28,34 36,54 8,20 12,41 12,65 0,23 -4,45 -12,64 -8,20 -20,38 -36,54zm1739 -118c0,-62 -25,-118 -65,-158 -41,-41 -96,-66 -158,-66 -62,0 -118,25 -158,66 -40,40 -65,96 -65,158 0,61 25,117 65,157 40,41 96,66 158,66 62,0 117,-25 158,-66 40,-40 65,-96 65,-157zm494 -494c0,-62 -25,-118 -65,-158 -41,-40 -97,-65 -158,-65 -62,0 -118,25 -158,65 -41,40 -65,96 -65,158 0,61 24,117 65,158 40,40 96,65 158,65 61,0 117,-25 158,-65 40,-41 65,-96 65,-158zm494 494c0,-62 -25,-118 -66,-158 -40,-41 -96,-66 -157,-66 -62,0 -118,25 -158,66 -41,40 -66,96 -66,158 0,61 25,117 66,157 40,41 96,66 158,66 61,0 117,-25 157,-66 41,-40 66,-96 66,-157z"/>
 </g>
</svg>
