<?xml version="1.0" encoding="UTF-8"?>
<!DOCTYPE svg PUBLIC "-//W3C//DTD SVG 1.1//EN" "http://www.w3.org/Graphics/SVG/1.1/DTD/svg11.dtd">
<!-- Creator: CorelDRAW 2019 (64-Bit) -->
<svg xmlns="http://www.w3.org/2000/svg" xml:space="preserve" width="145px" height="113px" version="1.1" style="shape-rendering:geometricPrecision; text-rendering:geometricPrecision; image-rendering:optimizeQuality; fill-rule:evenodd; clip-rule:evenodd"
viewBox="0 0 10179 7917"
 xmlns:xlink="http://www.w3.org/1999/xlink">
 <defs>
  <style type="text/css">
   <![CDATA[
    .fil1 {fill:#5D6278}
    .fil0 {fill:#F3F3F5}
   ]]>
  </style>
 </defs>
 <g id="Warstwa_x0020_1">
  <metadata id="CorelCorpID_0Corel-Layer"/>
  <rect class="fil0" width="10179" height="7917" rx="512" ry="512"/>
  <path class="fil1" d="M5388 2761l36 0c22,0 42,8 56,22 14,15 23,34 23,56l0 617 0 196 0 300 0 156 0 337 0 156 0 149c0,21 -9,41 -23,55 -14,14 -34,23 -56,23l-950 0c-22,0 -42,-9 -56,-23 -14,-14 -23,-34 -23,-55l0 -1911c0,-22 9,-41 23,-56 14,-14 34,-22 56,-22l36 0 0 -334c0,-22 9,-41 23,-56 14,-14 34,-23 55,-23l1 0 0 -970c0,-13 4,-26 10,-38 6,-11 16,-21 27,-28 12,-7 25,-11 38,-12 13,-1 26,2 38,8l417 209 150 75c12,6 21,16 28,27 8,12 12,26 12,41l0 100 0 265 0 323 1 0c21,0 41,9 55,23 14,15 23,34 23,56l0 334zm-236 -1053l-406 -203 0 843 406 0 0 -640zm79 797l-564 0 0 256 564 0 0 -256zm-679 2166l794 0 0 -1754 -794 0 0 1754z"/>
 </g>
</svg>
