<?xml version="1.0" encoding="UTF-8"?>
<!DOCTYPE svg PUBLIC "-//W3C//DTD SVG 1.1//EN" "http://www.w3.org/Graphics/SVG/1.1/DTD/svg11.dtd">
<!-- Creator: CorelDRAW 2019 (64-Bit) -->
<svg xmlns="http://www.w3.org/2000/svg" xml:space="preserve" width="145px" height="113px" version="1.1" style="shape-rendering:geometricPrecision; text-rendering:geometricPrecision; image-rendering:optimizeQuality; fill-rule:evenodd; clip-rule:evenodd"
viewBox="0 0 2507 1950"
 xmlns:xlink="http://www.w3.org/1999/xlink">
 <defs>
  <style type="text/css">
   <![CDATA[
    .fil1 {fill:#5D6278}
    .fil0 {fill:#F3F3F5}
   ]]>
  </style>
 </defs>
 <g id="Warstwa_x0020_1">
  <metadata id="CorelCorpID_0Corel-Layer"/>
  <rect class="fil0" width="2507" height="1950" rx="126" ry="126"/>
  <path class="fil1" d="M1503 777c0,-11 -4,-21 -11,-28 -7,-7 -17,-11 -28,-11 -11,0 -20,4 -27,11 -8,7 -12,17 -12,28 0,10 4,20 12,27 7,7 16,12 27,12 11,0 21,-5 28,-12 7,-7 11,-17 11,-27zm233 100c-1,-27 -4,-56 -9,-85 -4,-30 -10,-60 -18,-90 -7,-29 -16,-57 -25,-82 -9,-24 -19,-46 -29,-65 -42,-73 -85,-104 -132,-113 -46,-10 -97,3 -151,18l-10 2c-32,8 -67,16 -103,20 -2,0 -10,0 -12,0 -36,-4 -70,-12 -103,-20l-11 -3c-108,-27 -199,-50 -282,97 -11,20 -21,43 -30,68 -10,25 -18,52 -24,79 -8,30 -14,60 -18,90 -5,29 -8,58 -9,86 -1,30 0,57 3,80 3,22 7,41 14,56 6,14 14,26 24,35 9,8 20,14 32,18 11,3 23,4 36,2 13,-1 26,-5 39,-10 22,-10 46,-24 71,-41 27,-20 56,-43 83,-69 19,-18 45,-32 75,-41 32,-10 69,-15 106,-15 37,0 74,5 106,15 30,9 56,23 75,41 27,26 56,49 83,69 25,17 49,31 71,41 14,5 27,9 40,10 13,1 24,1 35,-2 12,-4 23,-9 32,-18 9,-9 18,-21 24,-36 7,-15 11,-33 14,-56 3,-22 4,-49 3,-81zm-52 123c-3,9 -8,16 -13,21 -5,6 -11,9 -18,11 -7,2 -15,3 -24,1 -8,-1 -18,-3 -28,-7 -21,-8 -43,-21 -66,-38 -25,-17 -50,-39 -76,-63 -22,-22 -52,-39 -86,-50 -37,-12 -78,-18 -120,-18 -41,0 -83,6 -119,17 -35,11 -66,27 -88,48 -25,23 -50,45 -74,62 -24,18 -47,32 -68,40 -10,3 -20,6 -28,7 -9,2 -17,1 -24,-1 -7,-2 -13,-6 -18,-11 -5,-6 -10,-13 -14,-21 -5,-13 -8,-29 -11,-49 -2,-19 -2,-42 -1,-69 1,-27 4,-56 9,-85 4,-28 9,-56 17,-84 7,-27 15,-53 23,-77 9,-22 18,-43 28,-60 34,-62 71,-87 111,-94 40,-8 83,3 129,15 19,5 38,10 58,14 19,4 39,8 61,9l17 0c22,-1 42,-5 62,-9 20,-4 39,-9 58,-14l2 0c93,-23 171,-43 238,79 10,18 20,38 28,61 9,23 17,49 23,76 7,30 13,60 18,89 4,27 7,54 8,80 1,28 1,51 -2,71 -2,20 -6,36 -12,49zm-545 -357c-6,-5 -12,-10 -19,-13 -7,-3 -14,-6 -22,-6l-3 -1 -1 -3c0,-7 -2,-14 -5,-21 -4,-7 -8,-14 -13,-19l-1 -1c-7,-6 -14,-11 -22,-15 -8,-3 -16,-5 -26,-5 -8,0 -17,2 -25,6 -8,3 -16,8 -22,14 -5,5 -10,12 -13,19 -4,7 -6,15 -6,22l-1 3 -3 1c-7,0 -15,2 -21,5 -8,3 -14,8 -20,13l-1 1c-7,7 -12,14 -15,22 -3,8 -5,16 -5,25 0,9 2,18 5,26 4,8 9,16 15,22 5,6 12,10 19,13 7,4 15,6 23,6l3 0 1 4c0,8 2,16 6,23 3,7 7,13 13,18l0 0c7,6 14,11 22,15 8,3 16,5 25,5 9,0 18,-2 26,-6 8,-3 16,-8 22,-14 5,-6 10,-12 13,-19 3,-7 6,-14 6,-22l0 -3 4 -1c8,0 15,-2 23,-6 6,-3 13,-7 18,-13l0 0c6,-7 11,-14 15,-22 3,-8 5,-16 5,-26 0,-8 -2,-17 -6,-25 -3,-8 -8,-16 -14,-22zm-25 68c-3,3 -6,5 -10,6 -3,2 -7,2 -11,2l-17 0c-5,0 -10,3 -14,6 -3,4 -6,8 -6,14l0 16c0,4 0,8 -2,11 -1,4 -3,7 -6,9 -3,3 -6,5 -9,7 -4,1 -7,2 -12,2 -4,0 -7,-1 -11,-2 -3,-2 -6,-4 -9,-7 -3,-2 -5,-5 -6,-9 -2,-3 -3,-7 -3,-11l0 -17c0,-5 -2,-10 -5,-14 -4,-4 -9,-6 -14,-6l-17 0c-8,0 -15,-2 -21,-8 -2,-2 -4,-5 -6,-9 -1,-3 -2,-7 -2,-11 0,-4 1,-7 2,-11 1,-3 3,-6 6,-9l2 -2c3,-2 6,-4 9,-5 3,-1 7,-1 10,-1l17 0c5,0 10,-3 14,-6 3,-4 5,-9 5,-14l0 -17c0,-4 1,-8 3,-11 1,-4 3,-7 6,-10 2,-2 6,-5 9,-6 4,-1 7,-2 11,-2 5,0 8,1 12,2 3,1 6,4 9,6 1,1 1,1 2,2 2,3 4,6 5,9 1,3 1,7 1,10l0 17c0,5 3,10 6,14 4,3 8,6 14,6l17 0c4,0 8,0 11,2 4,1 7,3 10,6 2,3 4,6 6,9 1,4 2,7 2,11 0,5 -1,8 -2,12 -2,3 -4,6 -6,9zm303 -21c0,-10 -5,-20 -12,-27 -7,-7 -16,-11 -27,-11 -11,0 -21,4 -28,11 -7,7 -11,17 -11,27 0,11 4,21 11,28 7,7 17,11 28,11 11,0 20,-4 27,-11 7,-7 12,-17 12,-28zm86 -86c0,-10 -4,-20 -11,-27 -7,-7 -17,-12 -28,-12 -11,0 -20,5 -27,12 -8,7 -12,17 -12,27 0,11 4,21 12,28 7,7 16,11 27,11 11,0 21,-4 28,-11 7,-7 11,-17 11,-28zm86 86c0,-10 -4,-20 -11,-27 -7,-7 -17,-11 -28,-11 -11,0 -20,4 -27,11 -7,7 -12,17 -12,27 0,11 5,21 12,28 7,7 16,11 27,11 11,0 21,-4 28,-11 7,-7 11,-17 11,-28z"/>
 </g>
</svg>
