<?xml version="1.0" encoding="UTF-8"?>
<!DOCTYPE svg PUBLIC "-//W3C//DTD SVG 1.1//EN" "http://www.w3.org/Graphics/SVG/1.1/DTD/svg11.dtd">
<!-- Creator: CorelDRAW 2019 (64-Bit) -->
<svg xmlns="http://www.w3.org/2000/svg" xml:space="preserve" width="145px" height="113px" version="1.1" style="shape-rendering:geometricPrecision; text-rendering:geometricPrecision; image-rendering:optimizeQuality; fill-rule:evenodd; clip-rule:evenodd"
viewBox="0 0 4294 3340"
 xmlns:xlink="http://www.w3.org/1999/xlink">
 <defs>
  <style type="text/css">
   <![CDATA[
    .fil1 {fill:#5D6278}
    .fil0 {fill:#F3F3F5}
   ]]>
  </style>
 </defs>
 <g id="Warstwa_x0020_1">
  <metadata id="CorelCorpID_0Corel-Layer"/>
  <rect class="fil0" width="4294" height="3340" rx="216" ry="216"/>
  <path class="fil1" d="M2673 399l-349 0c-17,0 -32,12 -34,29l-54 320 -18 0 -70 0 -28 0c-9,-61 -37,-115 -78,-156 -50,-50 -119,-81 -196,-81 -76,0 -146,31 -196,81 -50,50 -81,120 -81,196 0,77 31,146 81,196 21,21 45,38 71,51l-11 39 -21 68c-5,18 -10,37 -13,56 -11,51 -17,103 -17,158 0,2 0,4 0,6 0,122 47,236 133,321 60,61 135,102 216,121l0 313 -165 0c-19,0 -35,15 -35,34 0,20 16,35 35,35l539 0c19,0 35,-15 35,-35 0,-19 -16,-34 -35,-34l-164 0 0 -313c199,-47 349,-227 349,-442l0 -2c0,-48 -5,-101 -13,-151 0,-1 0,-2 0,-4 0,-5 -1,-10 -3,-15 -6,-35 -14,-68 -23,-96l-103 -322c-4,-14 -18,-24 -33,-24l-85 0 47 -280 319 0c19,0 35,-15 35,-34 0,-20 -16,-35 -35,-35zm-618 349l-131 0 -5 0 -82 0c-15,0 -29,10 -33,24l-47 146 -17 55c-16,-10 -31,-21 -45,-34 -38,-39 -62,-92 -62,-151 0,-59 24,-112 62,-151 39,-38 92,-62 151,-62 59,0 112,24 151,62 29,30 50,68 58,111zm-136 70l138 0 1 0 63 0 104 0 -59 352 -412 0c3,-11 6,-23 10,-35 0,0 0,-1 0,-1l23 -75 0 0 19 -62 23 -79 33 -100 57 0zm229 1299l-70 0 0 -301 70 0 0 301zm349 -757l0 2c0,212 -172,384 -384,384 -103,0 -199,-40 -272,-112 -72,-73 -112,-169 -112,-272 0,-2 0,-3 0,-6 0,-40 3,-78 10,-116l457 0c0,0 0,0 0,0 0,0 0,0 0,0l292 0c6,41 9,82 9,120zm-130 -542l94 297c6,17 10,35 15,55l-239 0 59 -352 71 0z"/>
 </g>
</svg>
