<?xml version="1.0" encoding="UTF-8"?>
<!DOCTYPE svg PUBLIC "-//W3C//DTD SVG 1.1//EN" "http://www.w3.org/Graphics/SVG/1.1/DTD/svg11.dtd">
<!-- Creator: CorelDRAW 2019 (64-Bit) -->
<svg xmlns="http://www.w3.org/2000/svg" xml:space="preserve" width="145px" height="113px" version="1.1" style="shape-rendering:geometricPrecision; text-rendering:geometricPrecision; image-rendering:optimizeQuality; fill-rule:evenodd; clip-rule:evenodd"
viewBox="0 0 4294 3340"
 xmlns:xlink="http://www.w3.org/1999/xlink">
 <defs>
  <style type="text/css">
   <![CDATA[
    .fil1 {fill:#5D6278}
    .fil0 {fill:#F3F3F5}
   ]]>
  </style>
 </defs>
 <g id="Warstwa_x0020_1">
  <metadata id="CorelCorpID_0Corel-Layer"/>
  <rect class="fil0" width="4294" height="3340" rx="216" ry="216"/>
  <path class="fil1" d="M2597 1869l-54 -141c-5,-12 -16,-19 -28,-19l-4 0 0 -560c5,0 11,0 16,-1 105,-9 150,-92 146,-165 -3,-77 -59,-156 -159,-169l0 -102 77 0c51,0 93,-42 93,-93 0,-52 -42,-94 -93,-94l-888 0c-51,0 -93,42 -93,94 0,51 42,93 93,93l77 0 0 102c-101,14 -156,92 -160,169 -3,73 41,156 147,165 5,1 10,1 16,1l0 560 -4 0c-12,0 -23,7 -28,19l-54 141c-50,3 -90,45 -90,95 0,53 43,96 96,96l888 0c53,0 96,-43 96,-96 0,-50 -40,-92 -90,-95l0 0zm-309 -160l56 0 107 0 0 -571c-17,-7 -32,-17 -44,-29 -14,-15 -30,-40 -32,-76l-31 0 -56 0 -60 0 -164 0 -60 0 -43 0 -42 0c-2,36 -18,61 -33,76 -11,12 -26,22 -43,29l0 571 118 0 43 0 60 0 164 0 60 0zm-277 -897l272 0 71 0 100 0 0 -100 -614 0 0 100 125 0 46 0zm272 61l-272 0 -46 0 -155 0c-85,0 -127,58 -129,113l0 0c-2,43 21,96 91,102 29,3 56,-5 71,-21 13,-14 18,-34 15,-59 0,0 0,0 0,0 -3,-22 -23,-28 -36,-27 -19,2 -19,15 -19,19 0,17 -13,30 -30,30 -17,0 -30,-13 -30,-30 0,-43 30,-75 74,-79 34,-3 75,14 93,51l471 0c7,-17 20,-32 38,-42 31,-16 69,-16 96,1 25,16 38,43 36,76 -1,16 -15,28 -30,28 -1,0 -2,0 -2,0 -17,-1 -30,-15 -29,-32 1,-15 -5,-20 -7,-21 -9,-5 -23,-5 -35,1 -8,5 -12,11 -12,19 0,1 0,3 0,4 -4,26 1,47 15,61 15,16 42,24 70,21 71,-6 94,-59 92,-102 -2,-55 -44,-113 -129,-113l-130 0 -71 0zm-613 -254c0,-19 15,-34 33,-34l888 0c18,0 33,15 33,34 0,18 -15,33 -33,33l-888 0c-18,0 -33,-15 -33,-33zm130 1150l694 0 38 100 -770 0 38 -100zm791 231l-888 0c-20,0 -36,-16 -36,-36 0,-19 16,-35 36,-35l888 0c20,0 36,16 36,35 0,20 -16,36 -36,36l0 0z"/>
 </g>
</svg>
