<?xml version="1.0" encoding="UTF-8"?>
<!DOCTYPE svg PUBLIC "-//W3C//DTD SVG 1.1//EN" "http://www.w3.org/Graphics/SVG/1.1/DTD/svg11.dtd">
<!-- Creator: CorelDRAW 2019 (64-Bit) -->
<svg xmlns="http://www.w3.org/2000/svg" xml:space="preserve" width="145px" height="113px" version="1.1" style="shape-rendering:geometricPrecision; text-rendering:geometricPrecision; image-rendering:optimizeQuality; fill-rule:evenodd; clip-rule:evenodd"
viewBox="0 0 14853 11552"
 xmlns:xlink="http://www.w3.org/1999/xlink">
 <defs>
  <style type="text/css">
   <![CDATA[
    .fil1 {fill:#5D6278}
    .fil0 {fill:#F3F3F5}
   ]]>
  </style>
 </defs>
 <g id="Warstwa_x0020_1">
  <metadata id="CorelCorpID_0Corel-Layer"/>
  <rect class="fil0" width="14853" height="11552" rx="748" ry="748"/>
  <path class="fil1" d="M8272 4645c-117,-183 -275,-328 -458,-429 -183,-99 -391,-154 -608,-154 -217,0 -425,55 -608,154 -183,101 -341,246 -458,429l-574 895c-46,73 -80,150 -101,231 -20,82 -28,166 -22,252 6,85 25,168 57,245 31,78 75,150 131,215 56,66 120,120 192,164 72,43 150,75 234,94 84,19 168,25 252,17 83,-8 165,-30 244,-64l10 -5c207,-89 428,-133 649,-132 221,1 442,46 647,137 51,22 103,39 156,50 53,12 108,17 162,17 30,0 60,-2 89,-5 30,-3 60,-8 89,-15 83,-19 162,-51 234,-94 71,-43 136,-98 192,-164 56,-65 100,-137 132,-215 31,-77 51,-160 56,-245 6,-86 -1,-171 -22,-252 -21,-81 -55,-158 -101,-231l-574 -895zm1504 -587c-141,-101 -316,-130 -486,-94 -173,38 -341,142 -462,305 -120,162 -171,353 -155,530 15,175 95,336 237,441 51,38 106,66 164,85 60,19 123,29 187,29 112,0 226,-29 332,-85 102,-54 195,-133 271,-235 120,-162 171,-353 155,-530 -15,-175 -95,-336 -237,-441l-6 -5zm-123 818l-2 1c-76,103 -179,172 -284,200 -106,28 -215,14 -300,-49l-2 -1c-83,-63 -128,-162 -132,-271 -4,-109 32,-227 108,-330 49,-67 111,-120 176,-156 68,-38 142,-58 212,-58 36,0 71,5 104,16 33,10 64,26 92,47 85,63 130,162 134,272 4,108 -31,226 -106,329zm-1488 -751c32,11 64,19 96,24 32,5 65,7 97,7 153,0 305,-56 431,-156 125,-98 225,-237 281,-405 33,-98 48,-199 46,-298 -2,-99 -21,-196 -58,-285 -38,-94 -92,-176 -159,-240 -67,-65 -146,-114 -236,-144 -89,-29 -182,-38 -275,-26 -92,12 -184,44 -271,97 -83,50 -156,116 -217,194 -61,78 -109,168 -141,266l-1 1c-68,207 -56,418 18,593 73,174 209,312 389,372zm-156 -883c23,-68 56,-130 97,-184 41,-54 92,-99 148,-133 53,-32 108,-53 163,-60 55,-8 111,-3 163,14 52,17 99,47 139,86 39,39 72,89 95,145 24,61 37,128 38,196 1,66 -9,135 -31,202l-1 4c-46,136 -132,245 -234,311 -102,66 -222,89 -333,53l-4 -1c-113,-38 -196,-128 -239,-244 -43,-114 -46,-253 -1,-389zm-1194 664c208,0 396,-96 532,-251 138,-157 223,-373 223,-611 0,-239 -85,-455 -223,-611 -136,-156 -324,-252 -532,-252 -207,0 -396,96 -532,252 -137,156 -222,372 -222,611 0,238 85,454 222,611 136,155 325,251 532,251zm0 -1462c136,0 260,68 348,178 88,108 143,257 143,422 0,164 -55,313 -143,421 -88,110 -212,178 -348,178 -136,0 -259,-68 -348,-178 -88,-108 -142,-257 -142,-421 0,-165 54,-314 142,-422 89,-110 212,-178 348,-178zm-1122 2166c82,-32 154,-81 214,-144 59,-63 106,-141 138,-230 30,-85 43,-176 41,-267 -2,-92 -21,-185 -55,-275 -35,-89 -83,-170 -143,-240 -60,-70 -131,-128 -210,-171 -83,-45 -170,-71 -256,-78 -87,-7 -173,5 -255,37 -165,63 -286,197 -347,362 -62,166 -63,364 9,553 58,148 152,270 267,355 117,87 254,135 392,135 35,0 70,-3 105,-9 33,-6 67,-16 100,-28zm-617 -548c-46,-120 -49,-244 -16,-347 33,-105 103,-189 202,-227 17,-7 36,-12 55,-15 18,-4 38,-6 57,-6 29,0 60,5 90,13 29,7 59,20 88,35 52,28 99,67 138,113 39,47 71,101 94,161 23,60 36,122 38,183 2,61 -7,121 -26,176 -18,52 -45,96 -78,133 -33,35 -71,63 -115,80l-5 2c-99,38 -207,23 -302,-33 -93,-54 -174,-148 -220,-268zm3504 2250c-76,89 -176,148 -284,172 -107,25 -223,16 -330,-32 -120,-52 -245,-92 -371,-119 -128,-26 -259,-40 -389,-40 -130,0 -261,14 -389,40 -126,27 -251,66 -370,119l-7 3c-107,45 -222,54 -328,29 -106,-25 -205,-84 -280,-172 -77,-89 -119,-197 -127,-308 -7,-110 20,-222 83,-321l575 -896c92,-144 217,-259 362,-339 145,-79 310,-122 481,-122 171,0 336,43 481,122 145,80 270,195 363,339l574 896c63,99 90,211 83,322 -8,110 -50,218 -127,307z"/>
 </g>
</svg>
