<?xml version="1.0" encoding="UTF-8"?>
<!DOCTYPE svg PUBLIC "-//W3C//DTD SVG 1.1//EN" "http://www.w3.org/Graphics/SVG/1.1/DTD/svg11.dtd">
<!-- Creator: CorelDRAW 2019 (64-Bit) -->
<svg xmlns="http://www.w3.org/2000/svg" xml:space="preserve" width="145px" height="113px" version="1.1" style="shape-rendering:geometricPrecision; text-rendering:geometricPrecision; image-rendering:optimizeQuality; fill-rule:evenodd; clip-rule:evenodd"
viewBox="0 0 4294 3340"
 xmlns:xlink="http://www.w3.org/1999/xlink">
 <defs>
  <style type="text/css">
   <![CDATA[
    .fil1 {fill:#5D6278}
    .fil0 {fill:#F3F3F5}
   ]]>
  </style>
 </defs>
 <g id="Warstwa_x0020_1">
  <metadata id="CorelCorpID_0Corel-Layer"/>
  <rect class="fil0" width="4294" height="3340" rx="216" ry="216"/>
  <path class="fil1" d="M1240 1092c8,41 22,79 42,114 63,113 92,231 92,338l0 441c0,20 16,36 36,36l143 0c20,0 36,-16 36,-36l0 -399c0,-80 18,-161 54,-234l3 -5c169,141 305,320 393,522 41,92 131,152 230,152l293 0c141,0 252,-3 335,-17 41,-7 165,-29 165,-126 0,-55 -45,-135 -116,-204 -47,-46 -147,-126 -283,-146 -10,-2 -21,1 -29,8 -36,32 -105,56 -165,56 -86,0 -177,-49 -211,-114 -1,-1 -2,-3 -2,-4l-239 -340c-148,-211 -324,-400 -524,-562 -14,-11 -32,-11 -45,0 -56,44 -103,98 -139,158 -69,117 -92,250 -69,361 0,0 0,1 0,1l0 0zm277 494l0 363 -71 0 0 -405c0,-11 0,-23 -1,-35 -11,-196 -96,-325 -112,-360 90,42 176,93 257,153 -39,63 -73,172 -73,284l0 0zm-146 -819c27,-45 60,-86 99,-121 186,154 350,331 488,529l238 339c47,86 162,149 273,149 70,0 149,-25 199,-62 108,21 189,86 228,124 62,61 95,123 95,153 0,30 -58,47 -107,55 -77,14 -185,16 -322,16l-293 0c-70,0 -135,-43 -164,-109 -155,-352 -441,-633 -798,-781 -13,-88 6,-196 64,-292l0 0zm0 0z"/>
 </g>
</svg>
