<?xml version="1.0" encoding="UTF-8"?>
<!DOCTYPE svg PUBLIC "-//W3C//DTD SVG 1.1//EN" "http://www.w3.org/Graphics/SVG/1.1/DTD/svg11.dtd">
<!-- Creator: CorelDRAW 2019 (64-Bit) -->
<svg xmlns="http://www.w3.org/2000/svg" xml:space="preserve" width="145px" height="113px" version="1.1" style="shape-rendering:geometricPrecision; text-rendering:geometricPrecision; image-rendering:optimizeQuality; fill-rule:evenodd; clip-rule:evenodd"
viewBox="0 0 2507 1950"
 xmlns:xlink="http://www.w3.org/1999/xlink">
 <defs>
  <style type="text/css">
   <![CDATA[

    .fil0 {fill:#f3f3f500}
   ]]>
  </style>
 </defs>
 <g id="Warstwa_x0020_1">
  <metadata id="CorelCorpID_0Corel-Layer"/>
  <path class="fil0" d="M126 0l2255 0c70,0 126,57 126,126l0 1698c0,69 -56,126 -126,126l-2255 0c-69,0 -126,-57 -126,-126l0 -1698c0,-69 57,-126 126,-126z"/>
  <path  d="M1156 726c21,0 38,-17 38,-38l0 -62c0,-20 -17,-37 -38,-37l-62 0c-20,0 -37,17 -37,37l0 62c0,21 17,38 37,38l62 0zm-199 -194l0 633 25 0 39 0 23 0 151 0 59 0 209 0 17 0 0 0 7 0 0 0 39 0 25 0 0 -633 -25 0 0 0 -39 0 -24 0 -419 0 0 0 -87 0zm-39 633l0 -633 -36 0 -25 0 -26 0c-18,0 -33,14 -33,33l0 567c0,18 15,33 33,33l26 0 25 0 36 0zm672 -633l0 633 36 0 25 0 25 0c18,0 33,-15 33,-33l0 -206 0 -23 0 -173 0 -60 0 -105c0,-19 -15,-33 -33,-33l-50 0 0 0 -36 0zm86 -39l-222 0 0 -107c0,-44 -36,-80 -80,-80l-240 0c-45,0 -81,36 -81,80l0 107 -222 0c-39,0 -72,32 -72,72l0 567c0,40 33,72 72,72l364 0 0 0 232 0 249 0c40,0 72,-32 72,-72l0 -206 0 -23 0 -173 0 -60 0 -105c0,-40 -32,-72 -72,-72zm-584 -107c0,-23 19,-41 42,-41l240 0c23,0 41,18 41,41l0 107 -42 0 0 -68c0,-21 -17,-38 -38,-38l-162 0c-21,0 -39,17 -39,38l0 68 -42 0 0 -107zm242 107l-161 0 0 -67 161 0 0 67zm-174 379c-6,-6 -14,-9 -23,-9 0,0 0,0 0,0 -8,0 -16,3 -22,9l-38 37c-12,13 -12,33 0,46l136 135c6,6 14,10 22,10l1 0c8,0 16,-4 22,-10l38 -37c12,-13 12,-33 0,-45l-136 -136zm76 186l-126 -126 27 -28 126 126 -27 28zm195 -228c2,-6 1,-13 -3,-18l-35 -42 4 -55c0,-7 -3,-13 -8,-17 -6,-4 -13,-5 -19,-2l-49 20 -49 -20c-6,-3 -14,-2 -19,2 -6,4 -9,10 -8,17l4 55 -35 42c-4,5 -5,12 -3,18 2,6 7,11 14,13l51 13 28 46c4,6 10,10 17,10 7,0 13,-4 17,-10l27 -46 52 -13c7,-2 12,-7 14,-13zm-83 -10c-5,1 -9,4 -12,9l-15 25 -16 -25c-2,-5 -7,-8 -12,-9l-29 -7 20 -24c3,-4 5,-9 4,-14l-2 -31 27 11c5,2 11,2 15,0l28 -11 -3 31c0,5 2,10 5,14l20 24 -30 7zm-252 -192l59 0 0 59 -59 0 0 -59z"/>
 </g>
</svg>
