<?xml version="1.0" encoding="UTF-8"?>
<!DOCTYPE svg PUBLIC "-//W3C//DTD SVG 1.1//EN" "http://www.w3.org/Graphics/SVG/1.1/DTD/svg11.dtd">
<!-- Creator: CorelDRAW 2019 (64-Bit) -->
<svg xmlns="http://www.w3.org/2000/svg" xml:space="preserve" width="145px" height="113px" version="1.1" style="shape-rendering:geometricPrecision; text-rendering:geometricPrecision; image-rendering:optimizeQuality; fill-rule:evenodd; clip-rule:evenodd"
viewBox="0 0 14853 11552"
 xmlns:xlink="http://www.w3.org/1999/xlink">
 <defs>
  <style type="text/css">
   <![CDATA[
    .fil1 {fill:#5D6278}
    .fil0 {fill:#F3F3F5}
   ]]>
  </style>
 </defs>
 <g id="Warstwa_x0020_1">
  <metadata id="CorelCorpID_0Corel-Layer"/>
  <rect class="fil0" width="14853" height="11552" rx="748" ry="748"/>
  <path class="fil1" d="M10693 2168c-20,-21 -48,-32 -76,-31 -82,0 -2018,33 -2986,1001 -122,124 -230,261 -320,410 -29,-32 -58,-63 -88,-93 -968,-968 -2904,-1001 -2986,-1002 -29,-1 -56,11 -76,31 -20,20 -32,48 -31,76 1,82 34,2018 1002,2986 691,692 1764,798 2354,798 172,0 301,-9 369,-15l447 447c42,40 108,39 148,-2 41,-40 42,-106 2,-148l-447 -447c4,-43 8,-110 12,-197 524,-72 1214,-262 1704,-753 969,-968 1002,-2904 1003,-2986 0,-28 -11,-55 -31,-75l0 0zm-2516 2664l-217 219c38,237 58,477 60,717 487,-70 1113,-247 1552,-688l0 0c781,-781 914,-2305 936,-2728 -423,22 -1948,155 -2728,935 -129,131 -239,278 -329,438 201,288 347,610 431,951l28 126c580,-580 1159,-1160 1738,-1740 26,-27 66,-38 103,-29 36,10 65,39 75,76 10,37 -1,76 -29,103 -519,519 -1039,1038 -1559,1558l-61 62zm-2384 -864l-587 -588c-27,-27 -66,-38 -103,-28 -37,9 -66,38 -75,75 -10,37 1,76 29,103l587 587c670,670 1340,1341 2010,2011 -492,16 -1670,-27 -2373,-730 -780,-781 -914,-2306 -936,-2729 423,22 1948,154 2729,935 703,704 746,1882 730,2374 -678,-678 -1319,-1337 -2011,-2010z"/>
  <g id="_2035011495344">
  </g>
  <g id="_2035011496880">
  </g>
  <g id="_2035011496912">
  </g>
  <g id="_2035011496272">
  </g>
  <g id="_2035011493648">
  </g>
  <g id="_2035011493136">
  </g>
  <g id="_2035011494736">
  </g>
  <g id="_2035011493776">
  </g>
  <g id="_2035011493968">
  </g>
  <g id="_2035011494384">
  </g>
  <g id="_2035011493232">
  </g>
  <g id="_2035011492912">
  </g>
  <g id="_2035000043648">
  </g>
  <g id="_2035007265872">
  </g>
  <g id="_2034998394080">
  </g>
  <g id="_2035000971280">
  </g>
  <g id="_2035000970096">
  </g>
  <g id="_2035000960528">
  </g>
  <g id="_2035000959824">
  </g>
  <g id="_2035000959440">
  </g>
  <g id="_2035000959248">
  </g>
  <g id="_2035126560832">
  </g>
  <g id="_2035126557152">
  </g>
  <g id="_2035126557728">
  </g>
  <g id="_2035126557312">
  </g>
  <g id="_2035126557536">
  </g>
  <g id="_2035126558656">
  </g>
  <g id="_2035126555712">
  </g>
  <g id="_2035126556896">
  </g>
  <g id="_2035126555200">
  </g>
  <g id="_2035126552832">
  </g>
  <g id="_2035126554112">
  </g>
  <g id="_2035126554368">
  </g>
  <g id="_2035126552448">
  </g>
  <g id="_2035126551776">
  </g>
  <g id="_2035126551520">
  </g>
  <g id="_2035126550816">
  </g>
  <g id="_2035126551392">
  </g>
  <g id="_2035126551456">
  </g>
  <g id="_2035126550272">
  </g>
  <g id="_2035126550240">
  </g>
  <g id="_2035126544384">
  </g>
  <g id="_2035126543040">
  </g>
  <g id="_2035126543168">
  </g>
  <g id="_2035126544288">
  </g>
  <g id="_2035126542080">
  </g>
  <g id="_2035126539520">
  </g>
  <g id="_2035126539200">
  </g>
  <g id="_2035126538496">
  </g>
  <g id="_2035126539104">
  </g>
  <g id="_2035126537760">
  </g>
  <g id="_2035126538016">
  </g>
  <g id="_2035126536960">
  </g>
  <g id="_2035126536800">
  </g>
  <g id="_2035126537600">
  </g>
  <g id="_2035126536672">
  </g>
  <g id="_2035126536224">
  </g>
  <g id="_2035126535072">
  </g>
  <g id="_2035126535776">
  </g>
  <g id="_2035126534816">
  </g>
  <g id="_2035126565920">
  </g>
  <g id="_2035126566816">
  </g>
  <g id="_2035126566208">
  </g>
  <g id="_2035126565664">
  </g>
  <g id="_2035126566144">
  </g>
  <g id="_2035126566048">
  </g>
  <g id="_2035126564800">
  </g>
  <g id="_2035126563456">
  </g>
  <g id="_2035126563808">
  </g>
  <g id="_2035126564704">
  </g>
  <g id="_2035126565088">
  </g>
  <g id="_2035126564544">
  </g>
  <g id="_2035126561664">
  </g>
  <g id="_2035126562080">
  </g>
  <g id="_2035126561344">
  </g>
 </g>
</svg>
