<?xml version="1.0" encoding="UTF-8"?>
<!DOCTYPE svg PUBLIC "-//W3C//DTD SVG 1.1//EN" "http://www.w3.org/Graphics/SVG/1.1/DTD/svg11.dtd">
<!-- Creator: CorelDRAW 2019 (64-Bit) -->
<svg xmlns="http://www.w3.org/2000/svg" xml:space="preserve" width="145px" height="113px" version="1.1" style="shape-rendering:geometricPrecision; text-rendering:geometricPrecision; image-rendering:optimizeQuality; fill-rule:evenodd; clip-rule:evenodd"
viewBox="0 0 3785 2944"
 xmlns:xlink="http://www.w3.org/1999/xlink">
 <defs>
  <style type="text/css">
   <![CDATA[
    .fil1 {fill:#5D6278}
    .fil0 {fill:#F3F3F5}
   ]]>
  </style>
 </defs>
 <g id="Warstwa_x0020_1">
  <metadata id="CorelCorpID_0Corel-Layer"/>
  <rect class="fil0" width="3785" height="2944" rx="191" ry="191"/>
  <path class="fil1" d="M2422 970l-148 0 0 -455c0,-7 -4,-15 -9,-20 -5,-5 -12,-8 -20,-8l-406 0c-6,0 -11,2 -16,4 -4,3 -8,7 -10,12 -3,5 -3,11 -3,16 1,5 3,11 7,15l86 101 -86 101c-4,4 -6,9 -7,15 0,5 0,10 3,15 2,5 6,9 10,12 5,3 10,5 16,5l378 0 0 187 -148 0c-8,0 -15,3 -20,8 -5,5 -8,13 -8,20l0 211 -325 0c-7,0 -14,3 -20,8 -5,5 -8,13 -8,20l0 211 -324 0c-8,0 -15,3 -20,8 -5,5 -8,13 -8,20l0 239c0,8 3,15 8,20 5,6 12,9 20,9l1058 0c7,0 15,-3 20,-9 5,-5 8,-12 8,-20l0 -717c0,-7 -3,-15 -8,-20 -5,-5 -13,-8 -20,-8zm-491 -281l31 -36c4,-5 7,-12 7,-18 0,-7 -3,-13 -7,-19l-62 -72 317 0 0 182 -317 0 31 -37zm440 998l-979 0 0 -182 324 0c8,0 15,-3 21,-9 5,-5 8,-12 8,-20l0 -210 324 0c8,0 15,-3 20,-8 5,-6 8,-13 8,-21l0 -210 296 0 0 660 -22 0z"/>
 </g>
</svg>
