<?xml version="1.0" encoding="UTF-8"?>
<!DOCTYPE svg PUBLIC "-//W3C//DTD SVG 1.1//EN" "http://www.w3.org/Graphics/SVG/1.1/DTD/svg11.dtd">
<!-- Creator: CorelDRAW 2019 (64-Bit) -->
<svg xmlns="http://www.w3.org/2000/svg" xml:space="preserve" width="145px" height="113px" version="1.1" style="shape-rendering:geometricPrecision; text-rendering:geometricPrecision; image-rendering:optimizeQuality; fill-rule:evenodd; clip-rule:evenodd"
viewBox="0 0 3785 2944"
 xmlns:xlink="http://www.w3.org/1999/xlink">
 <defs>
  <style type="text/css">
   <![CDATA[
    .fil0 {fill:#F3F3F5}
    .fil1 {fill:#5D6278;fill-rule:nonzero}
   ]]>
  </style>
 </defs>
 <g id="Warstwa_x0020_1">
  <metadata id="CorelCorpID_0Corel-Layer"/>
  <rect class="fil0" width="3785" height="2944" rx="191" ry="191"/>
  <path class="fil1" d="M2640 1363l0 -855c0,-11 -4,-21 -11,-28 -8,-8 -18,-12 -29,-12l-1473 0c-11,0 -21,4 -28,12 -7,7 -11,17 -11,28l0 948c0,11 4,21 11,28 7,8 17,12 28,12l620 0 1 0 232 0 0 0 620 0c11,0 21,-4 29,-12 7,-7 11,-17 11,-28l0 -93zm-520 319l46 0c21,0 40,8 54,22 13,14 22,33 22,54 0,21 -9,40 -22,54 -14,14 -33,22 -54,22l-604 0c-21,0 -40,-8 -54,-22 -14,-14 -22,-33 -22,-54 0,-21 8,-40 22,-54 14,-14 33,-22 54,-22l47 0c36,0 63,-13 81,-38 15,-21 24,-50 27,-88l-590 0c-27,0 -52,-11 -70,-29 -18,-18 -29,-43 -29,-71l0 -948c0,-28 11,-53 29,-71 18,-18 43,-29 70,-29l1473 0c28,0 53,11 71,29 18,18 29,43 29,71l0 948c0,28 -11,53 -29,71 -18,18 -43,29 -71,29l-589 0c3,38 12,67 27,88 18,25 45,38 81,38l1 0zm-384 0l256 0c-11,-15 -19,-31 -26,-51 -8,-22 -13,-47 -15,-75l-174 0c-2,28 -7,53 -15,75 -7,20 -16,36 -26,51zm-174 93l604 0c4,0 8,-2 11,-5 3,-3 5,-7 5,-12 0,-5 -2,-9 -5,-12 -3,-3 -7,-5 -11,-5l-604 0c-4,0 -9,2 -12,5 -3,3 -4,7 -4,12 0,5 1,9 4,12 3,3 8,5 12,5zm232 -372l140 0c8,0 15,4 21,9 5,5 8,13 8,21 0,8 -3,16 -8,21 -6,6 -13,9 -21,9l-140 0c-8,0 -15,-3 -21,-9 -5,-5 -9,-13 -9,-21 0,-8 4,-16 9,-21 6,-5 13,-9 21,-9zm-626 -885l1394 0c8,0 16,4 21,9 6,6 9,13 9,21l0 792c0,8 -3,16 -9,21 -5,6 -13,9 -21,9l-1394 0c-8,0 -15,-3 -21,-9 -5,-5 -9,-13 -9,-21l0 -792c0,-8 4,-15 9,-21 6,-5 13,-9 21,-9zm30 792l1334 0 0 -732 -1334 0 0 732z"/>
 </g>
</svg>
