<?xml version="1.0" encoding="UTF-8"?>
<!DOCTYPE svg PUBLIC "-//W3C//DTD SVG 1.1//EN" "http://www.w3.org/Graphics/SVG/1.1/DTD/svg11.dtd">
<!-- Creator: CorelDRAW 2019 (64-Bit) -->
<svg xmlns="http://www.w3.org/2000/svg" xml:space="preserve" width="145px" height="113px" version="1.1" style="shape-rendering:geometricPrecision; text-rendering:geometricPrecision; image-rendering:optimizeQuality; fill-rule:evenodd; clip-rule:evenodd"
viewBox="0 0 2507 1950"
 xmlns:xlink="http://www.w3.org/1999/xlink">
 <defs>
  <style type="text/css">
   <![CDATA[
    .fil1 {fill:#5D6278}
    .fil0 {fill:#F3F3F5}
   ]]>
  </style>
 </defs>
 <g id="Warstwa_x0020_1">
  <metadata id="CorelCorpID_0Corel-Layer"/>
  <rect class="fil0" width="2507" height="1950" rx="126" ry="126"/>
  <path class="fil1" d="M1699 414c-8,0 -16,0 -25,-2 -9,-2 -18,-4 -27,-6 -18,-5 -38,-12 -57,-19l-2 0c-27,-10 -55,-19 -84,-27 -15,-3 -30,-7 -45,-9 -15,-2 -30,-3 -46,-3 -15,0 -29,1 -41,3 -14,3 -27,7 -38,12 -13,5 -24,11 -34,18 -11,8 -21,17 -29,25l-5 7 -13 16 -13 -16 -5 -7c-8,-8 -18,-17 -29,-25 -10,-7 -21,-13 -34,-18 -11,-5 -24,-9 -38,-12 -12,-2 -26,-3 -41,-3 -31,0 -62,5 -91,12 -29,8 -57,17 -84,27l-2 0c-20,7 -39,14 -57,19 -9,2 -18,4 -27,6 -9,2 -17,2 -25,2 -2,0 -5,1 -7,2 -2,1 -4,2 -6,4 -2,2 -3,4 -4,6 -1,2 -1,4 -1,7l0 710c0,3 0,5 1,7 1,3 2,5 4,6 2,2 4,3 6,4 2,1 5,2 7,2 9,0 19,-1 29,-3 9,-1 19,-3 29,-6 21,-6 42,-13 64,-21l1 0c53,-18 107,-37 163,-37 12,0 23,1 34,3 10,2 21,5 30,9 10,4 19,9 27,14 8,6 16,13 23,21 1,1 2,2 3,2 1,1 2,2 3,2 2,1 3,1 4,1 1,1 3,1 4,1l64 0c1,0 3,0 4,-1 1,0 3,0 4,-1 1,0 2,-1 3,-2 1,0 2,-1 3,-2 7,-8 15,-15 23,-21 9,-5 18,-10 27,-14 10,-4 20,-7 31,-9 10,-2 21,-3 33,-3 56,0 110,19 163,37l1 0c22,8 43,15 64,21 10,3 20,5 30,6 9,2 19,3 28,3 2,0 5,-1 7,-2 2,-1 4,-2 6,-4 2,-1 3,-3 4,-6 1,-2 1,-4 1,-7l0 -710c0,-3 0,-5 -1,-7 -1,-2 -2,-4 -4,-6 -2,-2 -4,-3 -6,-4 -2,-1 -5,-2 -7,-2zm-286 -29c56,0 110,19 162,37 8,3 17,6 26,9 8,2 16,5 25,7 8,3 16,5 24,7 7,2 15,3 22,5l8 1 0 561 -11 -2c-24,-4 -51,-14 -79,-24l-2 0c-53,-19 -113,-39 -175,-39 -13,0 -26,1 -37,3 -12,2 -22,4 -32,8 -11,4 -21,8 -30,14 -11,5 -20,12 -27,19l-15 13 0 -529 0 -2c3,-6 10,-21 23,-37 8,-10 19,-20 33,-28 11,-7 24,-13 39,-17 14,-4 29,-6 46,-6zm-579 65c7,-2 15,-3 22,-5 8,-2 16,-4 24,-7 9,-2 17,-5 25,-7 8,-3 18,-7 26,-9 52,-18 106,-37 162,-37 17,0 32,2 46,6 15,4 28,10 39,17 14,8 25,18 33,28 13,16 20,31 23,37l0 2 0 529 -15 -13c-7,-7 -16,-14 -27,-19 -9,-6 -19,-10 -30,-14 -10,-4 -20,-6 -32,-8 -11,-2 -24,-3 -37,-3 -62,0 -122,20 -175,39l-1 0c-14,5 -28,10 -42,14 -13,4 -26,8 -38,10l-11 2 0 -561 8 -1zm835 671c-6,-1 -12,-2 -19,-4 -6,-2 -13,-4 -20,-6l-21 -7 -22 -8c-26,-9 -54,-18 -83,-26 -15,-3 -30,-7 -45,-9 -15,-2 -30,-3 -46,-3 -14,0 -27,1 -38,3 -13,2 -25,6 -36,10 -11,4 -22,9 -31,15 -11,7 -20,15 -28,22l-3 3 -48 0 -3 -3c-8,-7 -17,-15 -28,-22 -9,-6 -19,-11 -31,-15 -11,-4 -23,-8 -36,-10 -11,-2 -24,-3 -38,-3 -16,0 -31,1 -46,3 -15,2 -30,6 -45,9 -29,8 -57,17 -83,27l-22 7 -21 7c-7,2 -14,4 -20,6 -7,2 -13,3 -19,4l-11 2 0 -73 8 -1c30,-5 62,-16 95,-28l2 0c26,-9 52,-18 79,-25 13,-4 27,-7 41,-9 14,-2 28,-3 42,-3 12,0 23,1 34,3 10,2 21,5 30,9 10,4 19,8 27,14 8,6 16,13 23,21 1,1 2,1 3,2 1,1 2,2 3,2 1,1 3,1 4,1 1,1 3,1 4,1l64 0c1,0 3,0 4,-1 1,0 3,0 4,-1 1,0 2,-1 3,-2 1,0 2,-1 3,-2 7,-8 15,-15 23,-21 9,-6 18,-10 27,-14 10,-4 20,-7 30,-9 11,-2 22,-3 34,-3 14,0 28,1 42,3 14,2 28,5 41,9 27,7 54,16 80,25l1 0c34,12 66,23 95,28l8 1 0 73 -11 -2z"/>
 </g>
</svg>
