<?xml version="1.0" encoding="UTF-8"?>
<!DOCTYPE svg PUBLIC "-//W3C//DTD SVG 1.1//EN" "http://www.w3.org/Graphics/SVG/1.1/DTD/svg11.dtd">
<!-- Creator: CorelDRAW 2019 (64-Bit) -->
<svg xmlns="http://www.w3.org/2000/svg" xml:space="preserve" width="145px" height="113px" version="1.1" style="shape-rendering:geometricPrecision; text-rendering:geometricPrecision; image-rendering:optimizeQuality; fill-rule:evenodd; clip-rule:evenodd"
viewBox="0 0 10179 7917"
 xmlns:xlink="http://www.w3.org/1999/xlink">
 <defs>
  <style type="text/css">
   <![CDATA[
    .fil1 {fill:#5D6278}
    .fil0 {fill:#F3F3F5}
   ]]>
  </style>
 </defs>
 <g id="Warstwa_x0020_1">
  <metadata id="CorelCorpID_0Corel-Layer"/>
  <rect class="fil0" width="10179" height="7917" rx="512" ry="512"/>
  <path class="fil1" d="M6027 3033l-190 0c111,-248 185,-510 219,-781l33 -254c4,-33 -13,-64 -42,-79 -29,-15 -64,-10 -89,12l-25 24c-109,101 -205,211 -289,329 68,-328 156,-659 251,-867l0 -1c15,-32 6,-70 -21,-92 -27,-23 -66,-24 -95,-3 -155,112 -293,246 -413,395 22,-183 72,-364 150,-532 13,-30 7,-65 -17,-88 -24,-23 -59,-29 -89,-14l-144 72c-223,112 -378,317 -428,554 -107,-123 -238,-223 -387,-294l-209 -100c-31,-15 -67,-8 -90,16 -24,25 -28,62 -12,91l14 26c143,260 252,536 324,824 -53,-40 -110,-74 -170,-103l-175 -84c-31,-14 -67,-8 -90,17 -23,25 -28,61 -12,91l12 21c141,257 242,533 300,820l-244 0c-43,0 -78,35 -78,78l0 1286c0,362 295,657 657,657l770 0c362,0 657,-295 657,-657l0 -1286c0,-43 -35,-78 -78,-78zm-121 -829l-4 28c-35,279 -115,548 -237,801l-201 0c80,-309 230,-591 442,-829zm-259 -568c-127,402 -213,903 -240,1075 0,1 0,1 0,2 -42,103 -77,210 -103,320l-247 0c3,-527 219,-1031 590,-1397zm-671 240c0,-234 122,-445 321,-562 -64,195 -98,402 -98,607l0 22c0,4 0,9 1,14 -23,40 -46,80 -67,121 -16,31 -31,63 -45,95 -27,-96 -65,-188 -115,-275 2,-7 3,-14 3,-22zm-592 -322l0 0c357,171 589,535 592,931 -48,178 -74,363 -75,548l-16 0c-9,-174 -62,-342 -155,-490 -16,-25 -33,-48 -50,-72 -57,-318 -157,-626 -296,-917zm-111 771c264,140 438,411 456,708l-228 0c-46,-245 -123,-483 -228,-708zm1676 2072c0,277 -225,502 -501,502l-770 0c-276,0 -501,-225 -501,-502 0,-403 0,-806 0,-1209l1189 0c0,0 0,0 1,0l346 0c1,0 1,0 1,0 0,0 0,0 0,0l235 0 0 1209z"/>
 </g>
</svg>
