<?xml version="1.0" encoding="UTF-8"?>
<!DOCTYPE svg PUBLIC "-//W3C//DTD SVG 1.1//EN" "http://www.w3.org/Graphics/SVG/1.1/DTD/svg11.dtd">
<!-- Creator: CorelDRAW 2019 (64-Bit) -->
<svg xmlns="http://www.w3.org/2000/svg" xml:space="preserve" width="145px" height="113px" version="1.1" style="shape-rendering:geometricPrecision; text-rendering:geometricPrecision; image-rendering:optimizeQuality; fill-rule:evenodd; clip-rule:evenodd"
viewBox="0 0 3785 2944"
 xmlns:xlink="http://www.w3.org/1999/xlink">
 <defs>
  <style type="text/css">
   <![CDATA[
    .fil1 {fill:#5D6278}
    .fil0 {fill:#F3F3F5}
   ]]>
  </style>
 </defs>
 <g id="Warstwa_x0020_1">
  <metadata id="CorelCorpID_0Corel-Layer"/>
  <rect class="fil0" width="3785" height="2944" rx="191" ry="191"/>
  <path class="fil1" d="M1888 441c386,0 699,313 699,698 0,386 -313,699 -699,699 -386,0 -699,-313 -699,-699 0,-385 313,-698 699,-698zm372 531c-31,3 -57,8 -79,15 107,187 149,424 159,595 106,-108 173,-254 180,-416 -73,-90 -170,-205 -260,-194zm-319 -360c14,-19 12,-59 10,-95 0,-1 0,-3 0,-4 -20,-2 -41,-3 -61,-3 -79,0 -154,14 -223,40 49,24 126,65 211,126 29,-25 51,-48 63,-64zm-318 198c75,-16 146,-54 203,-94 -118,-81 -216,-123 -236,-131 -122,66 -220,171 -276,299 74,-30 154,-45 232,-59 26,-5 52,-10 77,-15zm89 205c81,-75 167,-142 245,-196 -26,-23 -52,-44 -78,-64 -65,49 -150,97 -243,117 -26,5 -53,10 -78,15 -100,18 -195,36 -275,81 -15,55 -24,113 -24,172 0,134 42,259 113,361 46,-183 205,-361 340,-486zm300 -232c75,-48 140,-81 181,-93 38,-11 75,-20 110,-26 -81,-70 -180,-120 -289,-142 3,44 4,92 -23,128 -12,16 -34,39 -61,64 27,21 54,44 82,69zm47 45c7,7 14,14 20,21 25,26 47,54 68,84 29,-11 64,-19 106,-24 99,-11 187,67 262,153 -16,-130 -72,-249 -155,-342 -46,5 -97,15 -148,30 -34,10 -89,38 -153,78zm-83 326c26,-88 56,-151 114,-192 -17,-25 -36,-48 -56,-70 -10,-9 -19,-19 -29,-28 -233,158 -552,449 -581,702 97,106 229,178 379,199 54,-108 105,-328 136,-459 14,-63 27,-117 37,-152zm61 18c-10,33 -23,87 -37,149 -42,182 -83,345 -130,450 6,0 13,0 20,0 147,0 282,-50 389,-135 -4,-179 -47,-432 -155,-621 -42,32 -65,81 -87,157z"/>
 </g>
</svg>
