<?xml version="1.0" encoding="UTF-8"?>
<!DOCTYPE svg PUBLIC "-//W3C//DTD SVG 1.1//EN" "http://www.w3.org/Graphics/SVG/1.1/DTD/svg11.dtd">
<!-- Creator: CorelDRAW 2019 (64-Bit) -->
<svg xmlns="http://www.w3.org/2000/svg" xml:space="preserve" width="145px" height="113px" version="1.1" style="shape-rendering:geometricPrecision; text-rendering:geometricPrecision; image-rendering:optimizeQuality; fill-rule:evenodd; clip-rule:evenodd"
viewBox="0 0 14853 11552"
 xmlns:xlink="http://www.w3.org/1999/xlink">
 <defs>
  <style type="text/css">
   <![CDATA[
    .fil1 {fill:#5D6278}
    .fil0 {fill:#F3F3F5}
   ]]>
  </style>
 </defs>
 <g id="Warstwa_x0020_1">
  <metadata id="CorelCorpID_0Corel-Layer"/>
  <rect class="fil0" width="14853" height="11552" rx="748" ry="748"/>
  <path class="fil1" d="M11681 3618l-998 -143 -4 -2c-90,-56 -182,-108 -276,-158 -93,-49 -188,-96 -284,-139 -319,-145 -651,-254 -991,-327 -340,-73 -688,-110 -1037,-110l-173 0c-412,0 -822,52 -1219,153 -397,102 -781,252 -1144,449l-506 277 -6 0c-291,3 -580,43 -859,119 -279,76 -549,187 -802,331 -100,57 -181,139 -237,236 -56,96 -87,207 -87,322l0 869c0,34 14,64 36,87 22,22 53,36 87,36l508 0 5 15c78,222 238,391 435,486 196,94 428,114 650,36 122,-43 231,-112 320,-202 89,-89 159,-198 202,-320l5 -15 3940 0 6 15c77,222 238,391 434,486 196,94 429,114 650,36 122,-43 232,-113 321,-202 89,-89 158,-198 201,-320l5 -15 69 0c16,0 32,-3 46,-9l474 -190c101,-40 185,-109 244,-196 58,-86 91,-190 91,-299l0 -1184c0,-31 -12,-59 -30,-81 -19,-22 -46,-37 -76,-41zm-4369 437l-292 0c-34,0 -65,14 -87,36 -22,23 -36,53 -36,87 0,34 14,65 36,87 22,23 53,36 87,36l292 0c34,0 65,-13 87,-36 23,-22 37,-53 37,-87 0,-34 -14,-64 -37,-87 -22,-22 -53,-36 -87,-36zm4092 0l-177 0c-34,0 -65,14 -87,36 -22,23 -36,53 -36,87 0,34 14,65 36,87 22,23 53,36 87,36l314 0 0 623c0,59 -18,115 -50,161 -31,46 -76,83 -131,105l-451 181 0 -34 -5 -82 -13 -84 -22 -81 -28 -79 -36 -73c-14,-24 -28,-47 -43,-70l-50 -66c-8,-10 -16,-18 -24,-26l-31 -33 -60 -56 -66 -48c-23,-14 -46,-29 -70,-43l-74 -35 -79 -29 -81 -21 -84 -13 -44 -3 -44 -1c-235,0 -449,96 -603,250 -155,155 -251,368 -251,604l0 23 -1217 0 0 -1508 1632 0c17,0 33,-4 47,-10 15,-6 29,-15 40,-26l391 -391 15 7c79,37 158,78 237,121 78,43 154,87 229,134 7,4 15,8 23,11 8,3 16,5 24,6l919 131 0 209 -137 0zm-6310 1412l-1 3c-33,164 -130,300 -260,386 -129,85 -291,121 -454,88l-3 0c-165,-34 -300,-131 -386,-261 -85,-129 -121,-290 -89,-454l1 -3c33,-164 131,-300 260,-385 130,-86 293,-122 457,-89 142,29 263,106 350,212 86,105 137,240 137,384 0,20 -2,41 -4,61 -1,20 -4,39 -8,58zm2621 -96l-2363 0 0 -23c0,-236 -96,-449 -250,-604 -155,-154 -369,-250 -604,-250 -236,0 -450,96 -605,250 -154,155 -250,368 -250,604l0 23 -339 0 0 -745c1,-71 20,-140 54,-199 35,-59 85,-110 146,-145 241,-137 497,-242 762,-313 265,-70 540,-106 816,-106l2656 0 0 1508 -23 0zm0 -1755l-2149 0 107 -58c314,-171 646,-305 988,-400 343,-95 696,-151 1053,-166l24 -1 0 625 -23 0zm292 -631l83 0c296,0 591,28 881,83 289,56 573,139 849,249l32 12 -287 287 -1581 0 0 -631 23 0zm2644 2482l0 3c-34,164 -131,300 -261,386 -129,85 -291,121 -454,88l-3 0c-164,-34 -300,-131 -386,-261 -85,-129 -122,-292 -88,-457 34,-164 131,-300 261,-385 129,-86 292,-122 457,-89 141,29 263,106 349,212 86,105 137,240 137,384 0,20 -1,41 -3,61 -2,20 -5,39 -9,58z"/>
 </g>
</svg>
